<svg xmlns="http://www.w3.org/2000/svg" fill="none" viewBox="0 0 400 480"><circle cx="200" cy="195" r="190" fill="#1e3a5f"/><circle cx="200" cy="195" r="185" fill="#162d4a"/><circle cx="200" cy="195" r="185" stroke="#3b6a9b" stroke-width="1.5" opacity=".5"/><path stroke="#3b6a9b" stroke-width=".3" d="M203.2 239.8h-8l-8.1.6-7.9 1.1-7.8 1.5-7.5 2-7.3 2.5-7 3-6.5 3.4-6.2 3.7-5.6 4.2-5.2 4.5-4.5 4.7-4 5.1-3.4 5.3-2.7 5.4-2 5.7-1.3 5.7-.6 5.8v5.8l.8 5.8 1.5 5.7 2.1 5.6 2.9 5.4 3.4 5.2 4.1 5 4.7 4.8 5.2 4.4 5.8 4 6.2 3.7 6.7 3.3 7 2.9 7.3 2.4 7.7 1.9 7.8 1.5 7.9.9 8.1.5 8-.1 8.1-.5 7.9-1.1 7.8-1.5 7.5-2.1 7.3-2.5 7-2.9 6.5-3.4 6.2-3.7 5.6-4.2 5.2-4.5 4.5-4.7 4-5.1 3.4-5.3 2.7-5.5 2-5.6 1.3-5.7.6-5.8v-5.8l-.8-5.8-1.5-5.7-2.1-5.6-2.9-5.4-3.4-5.2-4.1-5-4.7-4.8-5.2-4.4-5.8-4.1-6.2-3.6-6.7-3.3-7-2.9-7.3-2.4-7.7-1.9-7.8-1.5-7.9-.9-8.1-.5" opacity=".2"/><path stroke="#3b6a9b" stroke-width=".3" d="m205.6 144.1-14 .1-13.9.9L164 147l-13.5 2.6-13.1 3.6-12.6 4.3-12.1 5.1-11.3 5.8-10.7 6.6-9.8 7.1-8.9 7.8-7.9 8.3-6.9 8.7-5.7 9.2-4.7 9.5-3.5 9.7-2.3 9.9-1.1 10 .1 10.1 1.3 10 2.6 9.9 3.7 9.7 4.9 9.4 6 9.1 7.1 8.6 8.1 8.2 9.1 7.7 10 7 10.8 6.4 11.5 5.7 12.2 4.9 12.7 4.2 13.2 3.4 13.5 2.5 13.8 1.6 13.9.8 14-.1 13.9-.9 13.7-1.8 13.5-2.7 13.1-3.6 12.6-4.3 12.1-5.1 11.3-5.8 10.7-6.6 9.8-7.1 8.9-7.8 7.9-8.3 6.9-8.7 5.7-9.2 4.7-9.4 3.5-9.8 2.3-9.9 1.1-10-.1-10.1-1.3-10-2.6-9.9-3.7-9.7-4.9-9.4-6-9.1-7.1-8.6-8.1-8.2-9.1-7.6-10-7.1-10.8-6.4-11.5-5.7-12.2-4.9-12.7-4.2-13.2-3.4-13.5-2.5-13.8-1.6-13.9-.8" opacity=".2"/><path stroke="#3b6a9b" stroke-width=".3" d="m206.5 62-16.2.1-16 1.1-15.9 2.1-15.6 3.1-15.1 4.1-14.6 5-13.9 5.9-13.1 6.7-12.3 7.6-11.3 8.3-10.2 8.9-9.2 9.6-7.9 10.1-6.7 10.5-5.4 11-4.1 11.2-2.6 11.5-1.3 11.6.2 11.6 1.5 11.5 2.9 11.4 4.4 11.2 5.6 10.9 7 10.5 8.1 10 9.4 9.4 10.5 8.9 11.5 8.1 12.5 7.4 13.3 6.6 14 5.7 14.7 4.8 15.2 3.9 15.6 2.9 16 1.9 16 .9 16.2-.1 16-1.1 15.9-2.1 15.6-3.1 15.1-4.1 14.6-5 13.9-5.9 13.1-6.7 12.3-7.6 11.3-8.3 10.2-8.9 9.2-9.6 7.9-10.1 6.7-10.5 5.4-11 4.1-11.2 2.6-11.5 1.3-11.6-.2-11.6-1.5-11.5-2.9-11.4-4.4-11.2-5.6-10.9-7-10.5-8.1-10-9.4-9.4-10.5-8.9-11.5-8.1-12.5-7.4-13.3-6.6-14-5.7-14.7-4.8-15.2-3.9-15.6-2.9-16-1.9-16-.9" opacity=".2"/><path stroke="#3b6a9b" stroke-width=".3" d="m205.6 15.6-14 .1-13.9.9-13.7 1.8-13.5 2.7-13.1 3.6-12.6 4.3-12.1 5.1-11.3 5.8-10.7 6.6-9.8 7.1-8.9 7.8-7.9 8.3-6.9 8.7-5.7 9.2-4.7 9.4-3.5 9.8-2.3 9.9-1.1 10 .1 10.1 1.3 10 2.6 9.9 3.7 9.7 4.9 9.4 6 9.1 7.1 8.6 8.1 8.2 9.1 7.6 10 7.1 10.8 6.4 11.5 5.7 12.2 4.9 12.7 4.2 13.2 3.4 13.5 2.5 13.8 1.6 13.9.8 14-.1 13.9-.9L236 243l13.5-2.6 13.1-3.6 12.6-4.3 12.1-5.1 11.3-5.8 10.7-6.6 9.8-7.1 8.9-7.8 7.9-8.3 6.9-8.7 5.7-9.2 4.7-9.5 3.5-9.7 2.3-9.9 1.1-10-.1-10.1-1.3-10-2.6-9.9-3.7-9.7-4.9-9.4-6-9.1-7.1-8.6-8.1-8.2-9.1-7.7-10-7-10.8-6.4-11.5-5.7-12.2-4.9-12.7-4.2-13.2-3.4-13.5-2.5-13.8-1.6-13.9-.8" opacity=".2"/><path stroke="#3b6a9b" stroke-width=".3" d="m203.2 17.2-8 .1-8.1.5-7.9 1.1-7.8 1.5-7.5 2.1-7.3 2.5-7 2.9-6.5 3.4-6.2 3.7-5.6 4.2-5.2 4.5-4.5 4.7-4 5.1-3.4 5.3-2.7 5.5-2 5.6-1.3 5.7-.6 5.8v5.8l.8 5.8 1.5 5.7 2.1 5.6 2.9 5.4 3.4 5.2 4.1 5 4.7 4.8 5.2 4.4 5.8 4.1 6.2 3.6 6.7 3.3 7 2.9 7.3 2.4 7.7 1.9 7.8 1.5 7.9.9 8.1.5h8l8.1-.6 7.9-1.1 7.8-1.5 7.5-2 7.3-2.5 7-3 6.5-3.4 6.2-3.7 5.6-4.2 5.2-4.5 4.5-4.7 4-5.1 3.4-5.3 2.7-5.4 2-5.7 1.3-5.7.6-5.8v-5.8l-.8-5.8-1.5-5.7-2.1-5.6-2.9-5.4-3.4-5.2-4.1-5-4.7-4.8-5.2-4.4-5.8-4-6.2-3.7-6.7-3.3-7-2.9-7.3-2.4-7.7-1.9-7.8-1.5-7.9-.9-8.1-.5M200 66.5" opacity=".2"/><path stroke="#3b6a9b" stroke-width=".3" d="m200 323.5.6-12.1.5-12.9.6-13.8.5-14.4.5-15 .5-15.5.5-15.8.5-16 .4-16.2.3-16.1.4-15.9.3-15.7.3-15.3.2-14.8.1-14.2.2-13.5V73.7l.1-11.7-.1-10.7v-9.6l-.2-8.4-.1-7.2-.2-5.9-.3-4.6-.3-3.3-.4-1.8-.3-.4-.4 1-.5 2.3-.5 3.8-.5 5.1-.5 6.5-.5 7.6-.6 8.9-.5 10.1-.6 11.1m0 257-7.6-10.7-7.5-11.6-7.4-12.5-7.2-13.1-7-13.8-6.7-14.3-6.4-14.6-6-15-5.6-15.1-5.1-15.2-4.6-15.1-4.1-15-3.5-14.7-2.9-14.3-2.3-13.7-1.6-13.2-1-12.5-.4-11.6.4-10.8 1-9.7 1.6-8.8 2.3-7.6 2.9-6.4 3.5-5.2 4.1-4 4.6-2.6 5.1-1.4h5.6l6 1.3 6.4 2.7 6.7 3.9 7 5.2 7.2 6.4 7.4 7.5 7.5 8.7 7.6 9.8" opacity=".2"/><path stroke="#3b6a9b" stroke-width=".3" d="m200 323.5-13.7-6.6-13.5-7.6-13.4-8.4-13.1-9.3-12.6-9.9-12.1-10.7-11.6-11.2-10.8-11.7L89.1 236l-9.3-12.4-8.3-12.7-7.4-12.7-6.3-12.8-5.2-12.7-4.1-12.6-3-12.2-1.8-12-.6-11.4.6-11 1.8-10.3 3-9.6 4.1-8.8 5.2-8 6.3-7.1 7.4-6.2 8.3-5.1 9.3-4.1 10.1-3.1 10.8-1.9 11.6-.9 12.1.3 12.6 1.4 13.1 2.5 13.4 3.6 13.5 4.6 13.7 5.7" opacity=".2"/><path stroke="#3b6a9b" stroke-width=".3" d="m200 323.5-16.1-.9-16-1.8-15.8-2.9-15.3-3.7-14.9-4.7-14.3-5.5-13.6-6.4-12.8-7.1-11.9-7.9-10.9-8.6-9.9-9.1-8.6-9.7-7.5-10.1-6.1-10.5-4.9-10.8-3.5-11.1-2.1-11.1-.7-11.2.7-11.2 2.1-11.1 3.5-10.8 4.9-10.6 6.1-10.2 7.5-9.8 8.6-9.2 9.9-8.7 10.9-8 11.9-7.2L94 87.1l13.6-5.7 14.3-4.8 14.9-4 15.3-2.9 15.8-2.1 16-1 16.1-.1" opacity=".2"/><path stroke="#3b6a9b" stroke-width=".3" d="m200 323.5-14.2 5-14.2 3.9-13.9 2.9-13.6 1.8-13.1.8-12.7-.4-12-1.4-11.3-2.5-10.5-3.6-9.6-4.5-8.7-5.6-7.7-6.5-6.5-7.5-5.5-8.2-4.3-9.1-3.1-9.8-1.8-10.4-.6-10.9.6-11.5 1.8-11.8 3.1-12.1 4.3-12.3 5.5-12.5 6.5-12.4 7.7-12.4 8.7-12.2 9.6-12L95 136.7l11.3-11.1 12-10.7 12.7-10 13.1-9.3 13.6-8.6 13.9-7.7 14.2-6.9 14.2-5.9" opacity=".2"/><path stroke="#3b6a9b" stroke-width=".3" d="m200 323.5-8.5 9.4-8.5 8.3-8.4 7.1-8.1 6.1-7.9 4.8-7.6 3.5-7.2 2.3-6.8 1-6.3-.3-5.8-1.6-5.2-2.9-4.6-4.2-3.9-5.4-3.3-6.6-2.6-7.7-1.8-8.8-1.2-9.9-.3-10.7.3-11.7 1.2-12.4 1.8-13.1 2.6-13.6 3.3-14.1 3.9-14.5 4.6-14.8 5.2-14.9 5.8-14.9 6.3-14.8 6.8-14.6 7.2-14.4 7.6-13.9 7.9-13.4 8.1-12.7L183 88l8.5-11.2 8.5-10.3" opacity=".2"/><path stroke="#3b6a9b" stroke-width=".3" d="m200 323.5-.6 11.1-.5 10.1-.6 8.9-.5 7.6-.5 6.5-.5 5.1-.5 3.8-.5 2.3-.4 1-.3-.4-.4-1.8-.3-3.3-.3-4.6-.2-5.9-.1-7.2-.2-8.4v-9.6l-.1-10.7.1-11.7v-12.6l.2-13.5.1-14.2.2-14.8.3-15.3.3-15.7.4-15.9.3-16.1.4-16.2.5-16 .5-15.8.5-15.5.5-15 .5-14.4.6-13.8.5-12.9.6-12.1m0 257 7.6 9.8 7.5 8.7 7.4 7.5 7.2 6.4 7 5.2 6.7 3.9 6.4 2.7 6 1.3h5.6l5.1-1.4 4.6-2.6 4.1-4 3.5-5.2 2.9-6.4 2.3-7.6 1.6-8.8 1-9.7.4-10.8-.4-11.6-1-12.5-1.6-13.2-2.3-13.7-2.9-14.3-3.5-14.7-4.1-15-4.6-15.1-5.1-15.2-5.6-15.1-6-15-6.4-14.6-6.7-14.3-7-13.8-7.2-13.1-7.4-12.5-7.5-11.6-7.6-10.7" opacity=".2"/><path stroke="#3b6a9b" stroke-width=".3" d="m200 323.5 13.7 5.7 13.5 4.6 13.4 3.6 13.1 2.5 12.6 1.4 12.1.3 11.6-.9 10.8-1.9 10.1-3.1 9.3-4.1 8.3-5.1 7.4-6.2 6.3-7.1 5.2-8 4.1-8.8 3-9.6 1.8-10.3.6-11-.6-11.4-1.8-12-3-12.2-4.1-12.6-5.2-12.7-6.3-12.8-7.4-12.7-8.3-12.7-9.3-12.4-10.1-12.1-10.8-11.7-11.6-11.2-12.1-10.7-12.6-9.9-13.1-9.3-13.4-8.4-13.5-7.6-13.7-6.6" opacity=".2"/><path stroke="#3b6a9b" stroke-width=".3" d="m200 323.5 16.1-.1 16-1 15.8-2.1 15.3-2.9 14.9-4 14.3-4.8 13.6-5.7 12.8-6.5 11.9-7.2 10.9-8 9.9-8.7 8.6-9.2 7.5-9.8 6.1-10.2 4.9-10.6 3.5-10.8 2.1-11.1.7-11.2-.7-11.2-2.1-11.1-3.5-11.1-4.9-10.8-6.1-10.5-7.5-10.1-8.6-9.7-9.9-9.1-10.9-8.6-11.9-7.9-12.8-7.1-13.6-6.4-14.3-5.5-14.9-4.7-15.3-3.7-15.8-2.9-16-1.8-16.1-.9" opacity=".2"/><path stroke="#3b6a9b" stroke-width=".3" d="m200 323.5 14.2-5.9 14.2-6.9 13.9-7.7 13.6-8.6 13.1-9.3 12.7-10 12-10.7 11.3-11.1 10.5-11.6 9.6-12 8.7-12.2 7.7-12.4 6.5-12.4 5.5-12.5 4.3-12.3 3.1-12.1 1.8-11.8.6-11.5-.6-10.9-1.8-10.4-3.1-9.8-4.3-9.1-5.5-8.2-6.5-7.5-7.7-6.5-8.7-5.6-9.6-4.5-10.5-3.6-11.3-2.5-12-1.4-12.7-.4-13.1.8-13.6 1.8-13.9 2.9-14.2 3.9-14.2 5" opacity=".2"/><path stroke="#3b6a9b" stroke-width=".3" d="m200 323.5 8.5-10.3L217 302l8.4-12.1 8.1-12.7 7.9-13.4 7.6-13.9 7.2-14.4 6.8-14.6 6.3-14.8 5.8-14.9 5.2-14.9 4.6-14.8 3.9-14.5 3.3-14.1 2.6-13.6 1.8-13.1 1.2-12.4.3-11.7-.3-10.7-1.2-9.9-1.8-8.8-2.6-7.7-3.3-6.6-3.9-5.4-4.6-4.2-5.2-2.9-5.8-1.6-6.3-.3-6.8 1-7.2 2.3-7.6 3.5-7.9 4.8-8.1 6.1-8.4 7.1-8.5 8.3-8.5 9.4" opacity=".2"/><g fill="#2563eb" stroke="#38bdf8" stroke-opacity=".35" stroke-width=".4" opacity=".28"><path d="m297.757 310.092.46.035 9.575-.269.114 1.143 3.579.119-1.404 3.182.03 1.071 1.556-.156.012.478-.849 1.583.065.519-.299 1.023.698.725.717 1.3.832-.102-2.204 2.197-2.906 2.213-1.532.776-1.028 1.02-1.808.959-.73.566-3.054 1.018-2.027 1.078-.299-2.157-.784-.454-.457-.284-2.626.816-1.476.089-1.721.406-1.072.129-1.108-.023-1.259-1.865-1.542-.482-.469-.954.353-1.157-.395-1.701 1.187-.542 1.075-1.149 1.156-1.523.722-.72-.002-.679-.593-.244-.136-.784.824-.59.194-1.343-1.1-.795 1.003-.657 3.08-1.218Zm-128.088-58.908-.009.207-.114.579-.417 4.586-9.288-1.621-.739 7.639-2.727-.234-.871 1.379.098 4.323-11.268-2.481-.741.81.283-1.185.051.017 6.464 1.258.465-.974 1.331-1.058 1.428-3.861 4.323-2.425 1.763-3.529.897-.068 1.184-2.188 2.398.069.972.549 1.278.195.98-.553 1.755.149.079-1.641ZM100.383 48.135l.17-.171 4.333-2.775 1.749-1.001 3.117-2.213 2.435-.841 1.016.032 2.465-1.448 1.787-.278 2.946-1.28 1.025-.033.255.544 1.281-.015 3.33-1.569 3.467-.761 2.142-.392 1.971-.658 1.592-.432 1.615-.252.612-.904.196-.958 2.297-.432 1.653-.331 1.711-.574 1.297-.675 9.864 3.656 6.674 3.242-2.103.704-2.319.406-1.092.494.091.826-.36.923-1.457.748-.216 1.189-.661 1.133-1.446.129-.003.603.934.442-.727.344-3.296.523.749 1.217-1.945-.305-.407.891.485.387-.901.779-1.998.875-2.325 1.543-1.22.967-.359.739-2.074.941-.573-1.15-1.556 1.398-1.027 2.17.089.683-2.143.915.952.847 1.62-.866.695.492-.349.964-.014.628-.972.686-1.908.937-.137.912-1.837 1.639.047 1.272-.414 1.266 1.855-.374.331.668-1.289 1.477-2.798.509 2.253.111-.2.706 2.942-.197 1.993-1.2 1.392-1.114 3.318-.406 2.039.564-.641 1.02-1.444.963-3.533 1.691-1.417-.403-.74 1.636-3.078.721 2.307.54-1.952 1.501-2.223.354-2.011 1.443 2.183.274 2.619-.158 3.319-.925-.148 1.204-.311 1.326-1.33 1.596-1.475.577-1.689-.064-1.495 1.194-1.461.427-2.308-1.021-.579-1.131.826-1.261-1.499.213-2.511-.099-1.288.143-1.97-.506-.149-1.389-1.18-.428-1.868.523-.259-1.115-2.169-.602-3.01-.219-2.134.251-3.198.984-.715 1.918-2.629 1.489-2.122 1.38.383 1.538-1.285 2.848-1.044 1.735-1.26 1.519-.686 1.992-1.033 1.958.05 2.262-.078 1.578-2.299 1.066-2.547 1.943-2.703 2.756-2.004 3.67 1.039.563 2.753-.954 3.883-3.298 1.171-1.778 1.682 1.372 2.21.329 2.024-.425 1.743-1.18 2.05-2.166 1.679-2.602 3.205-.187 2.371-1.831 4.272-2.589.839.413-.256 2.201.075 1.231 1.023.466-.583 1.5-1.083 2.237-.918.968.632 2.037-2.257 1.428-3.165 2.611.094 1.319-1.107 1.914 2.304.593 3.434-1.049 1.612-.179-1.771 2.556-2.282 3.971-2.098 3.713-1.835.855-.261 2.737-.572 2.287.842 2.416-.122 1.465-1.519 2.39.482 1.216-.419 1.35-2.365 2.722h-1.577l-1.503-.065-2.443-1.253-3.034.252-1.954-1.875-1.408-3.342-1.214-2.059-.963-1.275-2.282.327-1.943-.895-4.021.603-2.845.145.928.952 4.081-.319 3.456 1.272 1.413 1.891-.349 2.299-2.291.128-2.093 2.813-1.338 2.148.137 3.033 1.914 2.079 3.353-1.168-1.442 1.781-.066 1.769-2.635-.252-3.425-1.906-1.774-.584-2.507-.094-.519-1.349 1.729-1.935 3.271.805-1.477-2.343-1.184-1.429.699-2.213 2.989-2.899.313-1.266-.87-.647.354-1.038-2.222.412-1.937 1.146-1.245.389-.622-.344-.322-.397-.607.348-1.13-2.915-.848-2.409-.639-.361-2.104-.317-.228-.05-1.004.23-.395-1.519-.401-1.619-.512-.453-.372.633-.635.729-.227.162-1.526-1.277-.65-1.463-1.446-1.016-.058-.436.265-.869.286-.451.226-.149.804-.253 1.303-.186 1.37-.567 1.894-1.88 2.011-1.933.874-2.494.433-.097.261-.446-.045-.439.334-.586.545-.474-.269-.14.034-.482.241-.066.2-.534.604-.582.674-1.744.732-1.793.887-2.126.868-2-.652-.967-.007-.494.729-2.279-.215-1.07.894-1.916.579-1.778.302-1.146.483-.688 1.377-.96.074-.502-.931.474.625-3.122 1.376-5.121 1.784-5.017 1.916-4.356 2.232-4.283 2.493-4.119 2.884-4.157.995-1.316 3.19-3.893Zm14.267 37.222 1.406.244.162 1.456-.555.218-1.74-.57-.022-.789Zm31.215-7.494 1.483-1.242 1.112-.301.259.248-.009 1.578-1.374 1.708-.816.366-.111-.748-.113-.748-.577-.605Zm-31.696 11.909.927.016.026.467-.522.546-1.565.293.142-.597.786-.683Zm38.115-22.267-1.154-.19.379-.911.955-.802 1.324.205.681.756-1.172.617Zm7.944-.907-.056-.219.366-.947.898-.172-.225.98-.63.388Zm4.149-1.593-1.195.586-1.111-.073-.496-.683.82-.408 1.213-.217 1.3-.044-.267.574Zm-14.152 6.129.407-1.076 1.123-1.78 1.733-.423 1.554-.253 1.436-.7.569-1.153 1.091-.674 1.231.13-.395 1.07-1.092.664-.111 1.042-1.066.593-1.168.031-.747.749-.755.482-.147.801-.246.899.73.776.389 1.1-.085.979-1.058.939-1.25.499-.893-.14-.816-.73.274-.889-.623-1.666Zm14.882-12.7-.815.562-.792-.265-.324-.976 1.356-.52.678.513Zm1.82.42-.907.46-.272-.603.437-.709.405.079.602.572Zm-64.554 80.394-1.914.833-2.567 1.234 1.418.031.297 1.359-1.12.389.439 1.791 1.031-.01.547 2.003-1.843 1.415 1.187.461-.889 1.479-.829 1.946-2.235 1.661-.64-.496-.453-1.336 1.875-1.745-.084-.673-3.114.604-.633-.888 1.766-.201-.627-1.867-1.331-1.295-2.031-2.712.461-.903 1.389.025.119-1.219 2.152-.279 4.481-2.385 1.871-.554 1.659.256.405.67Zm19.965-56.802-.879 1.459-.745 1.499-1.36.666.348.646-.82 1.144-1.068-.512.447-1.895 1.228-1.102-1.643-.4-1.607-.903 1.669-.995-.329-1.3 1.458.382 2.296-.685 2.705-.594-.202.775-1.273.633.491.336Zm22.303-3.439 1.362.234-1.106 2.079-1.117 1.534-1.267.632 1.159 1.035-1.564 1.6-.353 2.321-.835 1.242-2.279 2.161-2.049-.716-.864 2.918.122 1.645-1.782 2.766.677 1.414-2.042 1.02-4.087.59.488-1.862 1.847-3.028-.937-.922-1.643.824-1.11 1.925-.566 2.039-.498.848-2.276 2.395-2.102.982.012-1.727.893-3.835-1.638 2.864-1.057 2.111-.833.795-.364-3.463.596-3.148.844-1.997.923-.096.879-2.258.881-2.131-.816.435-1.276-2.627.783-1.293 2.275-.324.535 1.766.99 1.756.914-.82 1.534-.39 3.217-.242 1.181-.866.874-.805.97-1.927.501-2.102.897.209 1.608-1.598-.003-.763.875-1.001-.978-.095-.654-1.302.331-3.114.812-1.919.454-1.38 1.084-.889 1.376.473.041-1.062 3.118-.864 2.729-.004 1.247.438.864 1.508-2.022-.027-1.902.997 2.531.012 1.442 1.332-2.993 2.074-2.019.524Zm5.11-11.743-.28 1.332-.858 1.339-2.672-.532-.508-.718-2.186-.408.249-.828 2.762-.762 1.521-.158 1.24.197Zm13.823-15.271 1.23 1.317.947 1.353-.583.655-.054.691-2.085-.506-.681-.559.213-.469-.413-1.148.269-.86Zm-40.778-15.991-1.121.938-1.723-.259-2.672.963.547-.414 1.663-.656 1.353-.399 1.258-.506 1.056-.18.508.06Zm44.45 25.294-.753.786-1.527 1.116-1.575.322-1.346.18.582-.769 1.261-.728.51-.997.725.489.947-.467ZM100.23 47.529l.359-.564 2.984-2.219 1.074-.504 1.839-1.187.781-.307 1.708-1.244 1.543-.588.326.037-1.792 1.243-1.087.753-1.406 1.128-1.106.521-1.557.774-2.06 1.389Zm58.431 3.952-1.219.626-1.298 1.355-1.205.407-1.61.442-.139-.84-.712-1.768-1.183-1.084-1.125-.207.302-1.881 1.412-.085 2.703-1.032.769.522 1.394.872 1.16.909 2.047-.072Zm-1.22 7.875.264.508-.39.551-1.5.03-1.257-.4.52-1.949-.399-1.551.491-.87.963.053.518 1.296 1.315-2.471 1.052-.638 2.144 1.21.438.604-1.892 1.237-2.261.711-.748.92 3.197-.469.802.577-.612.478-1.494.048Zm-8.503.391-1.515.718-3.043.464-2.16.282-1.937 1.312-1.866 1.486-1.271.037.207-1.272-1.306.606-.976-.174 1.015-1.502 1.365-1.411.249-.902-.215-1.451.712-1.979.607-1.381 1.556-.354 1.437-.963.172-.67 2.771-.669-.078.493-.334 1.12-.806.985-.122.954 1.536-1.311.843-1.488.799-.952 1.249-.215-.116 1.66.73-1.01 1.608-1.006 1.541.849.719.594.441 1.843-.961.545-1.084-.459-.073 1.467-1.961.764 1.041.814-1.262.536-3.108.456 1.018.365 3.204-.373.142.571Zm-2.642 4.029 2.199-.829 1.219.693-.856.795.098 1.116-.928.247-1.315-.483-1.542 1.157-2.709.195-.891-1.057.442-.731 1.285-.599 2.872-1.864.95-.024Zm4.198-4.043-.256.837-.853.476-1.711-.564 2.509-.973Zm7.719 4.622-1.53.466-1.588.101-2.227-.131-.047-.96.676-.647 1.775-.029.075-.917 2.358-.019-.292.573.79.79-.382.744Zm11.873.828.914.239.163.367.75-.177.05.814-1.739.57-.72.697-.613.699-2.094.593-1.001.66-.966-.454-2.382-.514-.186-.81.497-1.014 1.345-.588 1.146-.064.793.289.093-.778 1.129-.496 1.479-.281Zm3.882 1.415.573.443.089.364.52.569 1.211.312-.135.39-.862.459 1.75-.042.569.29.444.433.337.806-.292.225.791.639.034.63.073.633.132.786-.038.712-.472.829-.772.336-1.715-.149-1.019-.497-.823-.029.394.69-2.224-.068-1.13-.256-2.764.235-.83-.653-.718-.062-.728-1.167-.22.695-.639-.136-1.42.82-1.188-.118-1.071-.477-1.277.109-1.08-.45-.692.26.32.848-.752.231-2.171-.911.647-1.641-.613-1.502.354-.885.179-1.056 1.512-.285.692.855 2.279-.597.219.265-1.307 1.549 1.985-1.028.589-.858 1.231.194.789.673 1.113-.061 1.208-.788 1.631-.398-.077 1.097-.311.373 1.238.392.26-.923-.274-1.304 1.091-.782 1.303-.413.961-.47Zm-43.173 21.015-1.031-.176-.43-.928 1.372-.838 1.744-.338.629.599-.604 1.018-1.245.578Zm5.059-19.674-1.24.683-.946-.338 1.145-1.254-.163-.62 1.636-1.279.723.592 1.15.387-1.048.945-.64.554Zm-45.208 62.972.475.295.572 2.338.003 2.319-.374.449-.49-.623-.46-2.476Zm-5.841 6.914-.731 1.593.391 1.358.945 1.275-1.339.22-.487-.39-.281-2.81.497-1.108Z"/><path d="m100.383 48.135-3.313 3.613-3.19 3.893-.995 1.316-2.884 4.157-2.493 4.119-2.232 4.283-1.916 4.356-1.784 5.017L80.2 84.01l-.625 3.122.931-.474-.074.502-1.377.96-.483.688-.302 1.146-.579 1.778-.894 1.916.215 1.07-.729 2.279.007.494.652.967-.868 2-.887 2.126-.732 1.793-.674 1.744-.604.582-.2.534-.241.066-.034.482.269.14-.545.474-.334.586.045.439-.261.446-.433.097-.874 2.494-2.011 1.933-1.894 1.88-1.37.567-1.303.186-.804.253-.226.149-.286.451-.265.869.058.436 1.446 1.016.65 1.463 1.526 1.277.227-.162.635-.729.372-.633.512.453.401 1.619.395 1.519 1.004-.23.228.05 2.104.317.639.361.848 2.409 1.13 2.915.607-.348.322.397.622.344 1.245-.389 1.937-1.146 2.222-.412-.354 1.038.87.647-.313 1.266-2.989 2.899-.699 2.213-.559.979-1.886-.602-1.526-.876-1.405-1.047-1.631.404-.592.201-1.114 1.103-.857 1.673.251.737.674-.956-.235.966-.644.486-.829-.772-.302-.836-.865-.863-.391-.628-.477-.879-1.108-.807 1.312 2.094-.189.897-1.516-1.746-.39-1.084.266-.203-.744.056.081.601-1.576 1.117-1.957.323.469-.659-.022-.49.322-1.09-.961 1.468-.213.806-.731.816-.938.239-1.847.646.03-.247 1.477-.855.472-1.699 1.583-1.91-.954.542-1.139 1.678-.021-1.502-.287 1.894-1.806 2.045.019.661-.595.911-1.781 2.361-1.698.391-1.065-1.321-1.358-.016-.34-.817-.867-.207-.649.428-1.55-.782-1.013-.123-1.157.296-1.223 1.154-1.071 1.798-1.243 2.448-.934 2.391-.655.925-1.528 3.445-.976 1.381-.563.75-.939.803-.287-.348-.011-1.292.549-1.269.197-1.277 1.061-2.925.992-2.561.545-1.125 1.064-.963.782-1.699 1.147-3.283.167-1.089-.895-1.12.057-.458.69-1.905.346-1.748-.264-2.017.181-1.999-.083-1.396-.226-.526-.442.87-.648.743-.328.812-.193-.135.261-1.035-.262-.395.138-1.532.955-2.503-.023-1.524.542-1.891.055-1.12-.112-1.265-.836-.485-.262-1.224-.476-.244-.56.356-.993 1.236-.706.988-.563 1.015.141-.745.66-1.865.854-2.167.822-1.418 1.138-1.696 1.187-2.192 1.088-1.707 1.356-2.163 1.075-2.061.528-1.567-.757.082 1.079-2.115.865-1.5 1.046-1.368 1.085-1.469 1.186-1.821.935-1.454.889-1.233 1.577-3.226-.655.616.773-1.477 2.045-3.644 3.657-5.108 2.561-3.317.19-.097 1.42-2.064 1.361-1.855.999-.933 1.752-1.808.818-.929.591-.524.848-.989.916-.908 1.463-1.626.613-.596 1.022-.806 2.981-2.621 3.433-2.687.324-.17 1.181-.982 2.506-1.916 1.555-.911 1.693-1.223 1.088-.352 1.535-.71 1.797-1.001 1.132-.117 1.483-.43 1.519-.403 2.764-.995 2.049-.842 1.264-.58.224.058-2.483 1.979-2.511 1.189.208.176 1.814-.648Zm81.339-29.295-1.291.109-.382-.3.885-.281 1.145.004 1.1.102Zm-22.832 3.125-1.112.308-1.02.048.804-.729 1.171-.732 1.106-.119.754.194-1.044.666Zm2.493 15.651-6.674-3.242-9.864-3.656-1.297.675-1.711.574-1.653.331-2.297.432-.196.958-.612.904-1.615.252-1.592.432-1.971.658-2.142.392-3.467.761-3.33 1.569-1.281.015-.255-.544 1.425-.536 1.729-.832 2.027-.19 3.157-1.047 2.465-.272 1.31-.794 2.049-1.297 2.022-.842 4.476-1.157 1.56-.601 2.874-1.03 1.699-.962 3.345-.971 2.229-.438 1.212-.775-1.261-.326.689-.359 1.363-.783.839-.698 1.366-.729.93.312.576.911-1.089.767.705.039 1.074-1.05.168-.815 1.303-1.196-1.659.037.64-.925 1.242-.783 1.291-.658-.037-.38 2.099-1.005.102-.405 1.639-.734 1.255-.237 1.408-.519 1.544-.565 1.257-.474 2.937-.715.383.042-1.69.603-1.533.501-1.476.695-2.063.532-.509.437-1.812.928-.187.219-.881.537.444.571-.223.623 1.517-.695.672-.01.528-.471 1.483.111.121-.36 1.017.225 1.271-.65.986-.208.592.423-.003.345 1.278.082 1.898-.544 1.637.157 1.215.03.355.499 1.424.207-.238.631-.838.732-.173.594-1.095.276-1.086.024-.761.702-1.07.122-.789.536.644.406.898.023-.652.617.796-.189 1.234-.521.24-.315 1.227.032 1.826-.456 2.135-.051.798.365 1.982.44-1.595.733-2.514 1.022-1.023.183-.193-.613-2.632.567 1.508.506 1.797.164 1.214.457 1.43.342 1.805.16-.33.775-1.991.367-1.066.853.121.692-.695.854-.913.372-1.507 1.045-.989.143-.931 1.116-1.698.151-1.245-.36-.192.382-1.697.467-.25-.303-1.706.322-.831.487-2.461.442-1.948.683-.928.19-.945.757-1.891.388Zm29.692-16.346-.938-.133-.849.191-1.258-.165-1.481.019.069-.127 1.003-.34 1.187.111.618.138 1.248-.171.37.066Zm129.375 83.457 1.47 2.244.048 1.425 2.378 1.766.924 1.651-1.363 2.526 3.88 4.386.304 1.239.033 3.943 4.238 1.891.242 1.647 1.259.992-.62.74-1.027.125-1.049 2.241-1.084 2.666-.005.817-1.872 1.429.019 1.355 1.113 1.517-2.006 1.902-.254 1.364.703 1.328-.126 1.329.181 3.695.975 2.339-.354.62-1.186-.656-1.351 1.945-1.798-1.594-.52.74-1.89-2.465-2.703.103-1.722 2.727-1.065 2.071-2.867-.819-1.708.231-3.282.377-.399.039-2.223 4.943 6.636 9.422-.65.847-2.362-1.065-1.47.188-1.334 2.075-.116 1.476-.488-.575-.326-1.43-.877-.671-2.339.598-2.199-1.826-1.277.013-.599-.831 1.635-.957-1.204-1.993.962-1.489 1.524-.712-1.501-2.771-1.378-1.383-1.319 1.352-1.651.385-.911 2.546-1.035 1.663-1.055.158-.723-1.509-2.111-1.078-1.081.911-2.444-.921-.426-2.683-.786-.238-.751-3.811 2.505.449-1.137-2.077.785-5.079 1.979-1.777 4.134-.745 2.259-.38.409-2.304 1.776-1.957 2.511-.336-.312-1.063 1.585-1.664-.769-1.416-3.17.392-.065-2.304-.788-.405.383-1.75-2.235-.71-.32-1.32 2.597-5.228-.17-1.122 1.093-3.808-.35-1.941 1.768-1.774 2.759 1.649.084-1.808 1.639-.985 1.296 1.155.435-1.368-1.028-5.025.61 1.045 2.572-.299 7.303 1.45-1.069-1.689 1.942-.971-.158-2.51.609-.502 1.56.263.661-.707 1.145.065-.055-2.141Z"/><path d="m312.379 168.968-6.636-9.422 2.223-4.943.399-.039 3.282-.377 1.708-.231 2.867.819 1.065-2.071 1.722-2.727 2.703-.103 1.89 2.465.52-.74 1.798 1.594 1.351-1.945 1.186.656.354-.62-.975-2.339-.181-3.695.126-1.329.454-.262.567 2.801 1.398-.355.109-1.719 2.017-.794.369 3.717-.854 1.047-.316.736-.67-.39-.722-1.387-.769 2.701.935 1.996.584 2.054-.931 1.257.556 1.459 1.194-.654 1.591 1.381 1.244 3.323-1.18.774-.618.91-1.064-1.504-2.252 1.152-2.088.506-1.615-.109-2.622.094-2.48-1.777-.745.055-1.272 1.736-.858.056-1.594-1.828-2.7.62-.065 2.666-.55 2.092 1.107 1.058Zm71.651 7.109-.047-.033-.133-.929-.117-1.388-.344-3.091v.001ZM44.265 294.858l.508.786.444.682 2.767 4.107-3.587-5.37Zm5.505 8.104 1.004 1.381 2.583 3.438 1.956 2.488.74.934.08.104-3.971-5.092Zm11.423 14.339.437.45-.792-.996.576.583 1.488 1.704.916 1.098-.675-.67-.381-.411h-.001Zm223.506 5.632.395 1.701-.353 1.157.469.954 1.542.482 1.259 1.865-1.079.236-3.836 1.755-.795.51-.953 1.503.532.599-.804 2.357-.629 1.923.71.04 1.844-.036.824-.604-.125 1.784-2.128.777-.974-.528-.916-.369-2.138.514-.489-.709-1.843 1.144-2.266.496-.853-.498-1.823.4-1.385.457-.085-.51-1.009.251-1.334.279-1.864.779-1.287.305-.747.356.402-2.194-.932-.421-.118-1.086.542-1.255-.547-.58.037-1.204-3.672.932.308-.767-1.556.378-.186.379-1.894.511-.832 1.297-.495.583-1.679.098-1.024.481-2.047.566-1.117-.771-.678-.489-.834-1.003-.695-1.337-9.243 1.49-1.119.398-.907.088-1.315.441-.425-.56.814-.316.126-.893.526-.591 1.16-.586.824.09 1.099-.941 1.723-.24.177.55 1.166.177 1.889-1.589 1.842-1.328.815-.812-.078-1.721 1.393-2.34 1.439-1.392 2.059-1.464.361-.782.08-.833.503-.882-.162-1.252.363-2.111.594-1.573.903-1.447.147-1.466.235-1.724 1.162-1.483 1.623-1.146 2.552.234 1.974.418 2.229-.319 2.27-.126.849-1.693.404-.301 1.383-.135 3.271-2.165 1.199.16.956-.367.409-.72 1.095-.555 2.222-.454 1.874-.562.94-.582 1.862 1.382 1.302-.169.759-.681 1.33-.325 1.57-1.103.725.764 2.558.612-.07 2.805 1.136-.134-.884 1.183-1.079 1.04-1.066 1.614-.595 1.285-.15 1.868-.673 1.101-.04 1.675-.836.919-.132 1.329-.397.313-.305 1.273.687.699Zm33.138-21.643-1.446-.945-.152-8.262 2.042-3.946.629-1.152 1.567-1.007 2.033-3.033 3.091-2.135 5.711-11.81 1.261-3.205.754-2.267-.208-1.292-.432-2.516-.182-1.041.009-.051.681-.585.914-1.147 1.072-1.146.825-1.667.783-.656.183.655.096 1.611.249 1.3-.283 1.265-.146 3.154-.62 3.56-.937 4.156-1.509 4.962-1.684 4.075-2.482 5.127-2.242 3.489-3.478 4.627-2.232 3.162-2.697 4.356-.593 1.508Z"/><path d="m311.485 311.12-3.579-.119-.114-1.143-9.575.269-.46-.035-.017-2.352.785-1.266 1.327-2.118.952-2.132-1.288-2.111-.363-1.035-1.376-1.062 1.593-2.187 1.721-2.442 1.427-.263.089 1.351.96.343 1.843-.912 3.435.31.815-.406.602-.387.59-.039 1.719-.747.7-1.403 2.252-2.302 1.059.213 1.699-1.008-2.042 3.946.152 8.262 1.446.945-1.781 1.903-.65 1.259-.952.701-.437 1.718-.863 1.314-.587 1.678Zm-41.216-12.894-2.335-.445-1.077-.44-.251-.742.399-1.205-.093-1.05-1.837-1.145-.424-1.028-.023-.644-1.154-.48-.168-1.527-.71-.861-1.03.428.208-1.059.66-1.318-.448-1.026.89-1.087-.677-.469.593-1.887 1.108-2.378 2.523-.517-1.586-11.028-.141-1.201 3.23-.969-.903-5.712 10.907-3.661 10.154-4.042 9.972-4.637 1.464 2.331-.422.776 1.02 2.664 1.647 2.811 1.096.179 1.576.294-.93 2.207-1.75 1.391-.634 1.231.104 1.916-.386 4.476.463.924-.041 2.476-.647 3.091-1.401 2.051-.863 2.509-.131 1.176-1.18 1.304-.48 3.03.283 2.254-.239-1.954-.385.119-.095-1.288-.424-.735-1.515-.399-.564-1.718.079-2.064-1.281.361-.108.663-1.621.823.757.488.419 1.463-1.334 2.041-1.17 2.41-1.414.841-2.502-.584-1.007.934-.219.857-1.41 1.025-.042.561-2.843 1.019-.44-.391-2.077.622-1.001.786-.822.043-1.625-1.014-.567-.554-2.067 1.009-.699 1.441-.581 2.519-.974.777-.885.543Z"/><path d="m264.837 268.318 1.586 11.028-2.523.517-1.108 2.378-.593 1.887.677.469-.89 1.087.448 1.026-.66 1.318-.208 1.059 1.03-.428.71.861.168 1.527 1.154.48.023.644-1.843.955-1.43 1.452-1.967 3.376-2.763 1.871-2.953.514-.843.423.358.833-1.55 1.235-1.255 1.259-3.844 1.732-.794-.428-.515.048-.554.754-2.557.637.456-.765-1.046-1.582-.482-.987-1.374-.214-1.903-1.218.618-1.33 1.432.04.862-.327 1.729-.265-1.802-2.093.018-1.775-.298-1.733-1.328-1.516.235-1.324-1.971.248-.102-1.747-1.328-.823 1.094-3.826 3.672-3.246-.124-3.689.647-5.99.522-1.352-1.319-.779-.128-.916-1.166-.567-1.138-4.438 2.752-2.11 12.091 3.267ZM32.834 186.789l-.487 1.448-.453.742-.375-.127-.077 1.24-.279.598-.398-1.808-.451-.842-.408-1.467-.536-.57-.088-1.867.382-.555.548 2.288.518 1.793.514.249.064-1.975.4-.872-.33-1.692.463-.166.438 1.393Z"/><path d="m31.163 190.69.279-.598.077-1.24.375.127.453-.742.487-1.448.284-.142.68 1.645.275 1.842.272.488-.191 1.207.548 1.094-.331.637.408 1.011.138 1.887-.77.193-.268-1.503-.488-.855-.271-.805-.345.049-.416-.655.094-.898-.439-.36-1.008.759-.073-.915ZM228.847 67.417l-.771-.824 1.513-.626 2.903-.802 2.844.191.552.996-.778 1.166-1.174.593-2.268.058-.632.46Zm4.946-3.34 1.434-1.127 1.295.103 1.866 2.675-4.282-.979-.433-.355Zm-3.466-17.101-1.433-1.032-1.192-1.925 1.923-.618 2.345 1.456 1.537.431-.214 1.499-1.819.497Zm-4.308-4.29-1.303-1.146 1.478-.154.984.651.57 1.136-.751.327Zm9.503.935-1.462-.006-1.041-.43-.248-1.005.416-.339 1.11.635 1.212 1.013ZM220.569 84.17l.337-.874.52-.43.699.47-.353-.622-.059-.57 1.028-.006.236.394-.161.635-.151.404.329.36-.068.663-.958-.169-.485-.781Zm17.621 79.008-3.245.892-2.293.171.05-1.458 2.146-1.584 1.977.065.917.281.067.893Zm2.328-68.379-.89-2.928-1.275-.735-.293-2.057-.307-2.701.727-1.897-.473-1.392.232-1.12 1.342.219.693.782.204 2.549.113 2.34 1.12 3.295 1.747 2.634 1.534 2.753 2.171 1.552 3.197.468-.14.548-2.4 1.743-1.234-.772-1.821.472-1.358-1.076.15-1.008-1.321-1.121-.903-2.773Zm28.525-64.524 1.045-.402 1.61-.036.937-.385 1.025-.848 1.963 1.359 3.229.789-.131-.77 1.068.187.431.621 2.277.865-.948-.029-1.672-.322-1.486-.062-1.559-.312-2.201-.127-.697.539-2.401-.018-2.127-.772-.192.404-.878-.362Zm37.76 16.64-.088.069-.857-.33-.806-.694-2.248-.915-1.122-.15-1.862-1.273-1.49-1.424-2.684-1.272-2.425-.859-1.209-.582-2.358-.895 2.912 1.987 1.938 1.161 2.109 1.826-1.221.103.174 1.144 1.534 1.975-1.537.058-.854.189-.465.291-1.441.386.153.905.889 1.649 1.373 1.587 1.587 1.572 1.893 1.242.028-.563 1.221.252 1.245.87 3.213 1.768.962.255 2.708 2.303.229 1.366 1.199 1.689-.331.473.232.741 2.74 2.594 1.338 2.006 1.205 1.535.445 1.668.594 1.356-.853.383-.608.943.196 1.311.916 1.959.86 1.572-.467 1.607-1.781-.547-.249 1.399-.026 1.164-.751 1.118 2.833 2.727 1.376.13 1.916 2.319-.378 1.833.028 1.437-1.099.36.027 1.518-.748.851 1.144 2.925 1.971 4.156.279 1.858.138.726-1.59-.187.055 2.141-1.145-.065-.661.707-1.56-.263-.609.502.158 2.51-1.942.971 1.069 1.689-7.303-1.45-2.572.299-.61-1.045 1.028 5.025-.435 1.368-1.296-1.155-1.639.985-.084 1.808-2.759-1.649-1.768 1.774.35 1.941-1.093 3.808.17 1.122-2.597 5.228.32 1.32 2.235.71-.383 1.75.788.405.065 2.304 3.17-.392.769 1.416-1.585 1.664.312 1.063-2.511.336-1.776 1.957-.409 2.304-2.259.38-4.134.745-1.979 1.777-.785 5.079 1.137 2.077-2.505-.449.751 3.811.786.238.426 2.683 2.444.921 1.081-.911 2.111 1.078.723 1.509 1.055-.158.306 2.136-1.238 1.579.08 3.986 2.996 1.54.906 1.969 3.651 1.885-.373 1.855.097.915-.85.362-2.095-.836-.532.247-1.435.112-1.143-.781-1.933.5-.839 1.142-.577-.329-3.116.162-2.893 1.124-1.788.395-.064.469-3.505-1.153-2.628.015-2.385-.904 1.14-1.153.384-3.224-1.556-.624 2.053-2.574-.362-.602-1.35 1.31-.566-1.315.503-1.286 1.564-1.123-.221-1.105-1.195-1.369-.106-1.878-.461-.823-2.933.414-.962.545-1.719-.815-1.068 1.114-2.652.023-.233-.591-1.202-.981-1.427.483-.558-.846.153-.789-1.843-1.171-1.623 1.048-.581.068-.139.853-.693.151-1.231-1.732-.823-.82.21-.409 1.398-.46.36-.918-.827-.579-1.343-.055-.139-.574-.906-.266-1.864-1.525.008-.934-.759-1.32-1.871-.095-.7.67-.529-.649-2.003-.135-1.209-1.574-.71-1.398-1.027-.424.302-1.172-1.563-2.604.372-2.072-.436-.434.965-2.214-2.095-.841 1.317-4.79.443-2.13-.226-1.64-2.838-1.193-.385-2.037-2.121-1.675-.375-2.704-2.896-2.669-.019-2.464-2.556-1.229-.787-1.983.702-.553 1.134-1.745.479-1.341 2.528.922 3.023-.617 5.614.985 1.621.781 1.311 1.648-.143 1.986-1.226 1.619-6.039.311-.603.697 2.945 1.175.813 1.22 1.699 2.742 1.995.109 1.338.247-.659-1.378-1.404-.809.08-1.373 3.754.231.476-1.151-2.04-1.503.568-3.891 1.014-.411 1.595.29-.813-2.062-1.965-.961-.745-1.753-1.897-1.094 3.093-.851 1.667.984-.857 1.074 1.143 1.341 1.429.331.932-1.52-1.154-1.662.688-2.449.694-4.182.655-.393.722 1.967 1.158-.622-.305-1.219 1.229-1.357-.062-1.879 2.251.381-.999-2.108-2.121-.384-.543-.993 2.447-1.495 1.571-.437 4.923-.779-1.129-1.404-1.933-.102-.598-.332-.837.731-1.146-1.046-2.396-.931-.895-.515-1.745-2.707-2.319-1.833-.292-.762 1.652-1.31 1.679.646 2.02 1.816 1.14.032 2.123.794 3.829 2.224 2.163.047 1.733 1.373 3.14 3.939.921-.764-.836-.927-.267-1.362-1.3-.99-1.035-1.445-1.836-.357-1.731-1.341-.621.746-1.679-.63-2.628-2.042-2.792-.225-1.407-2.167-2.162-.794.075-.357 1.784.376 2.725 1.553.846-.523-2.252-.623-.731-1.657.315-1.49 2.082-.652-2.68-.301-3.248-1.098-.324-1.32.457-1.498-.19-1.503-1.687.079-1.944-1.227-.014-.702-1.473-1.471-.402-1.591-.864-.328-.382-1.504.656-.373-1.832-1.403-.137-.987-1.372-.22-1.438-.543-1.586-1.185.719-.847.982.671.073-1.15 1.448-.175-.917-.452-.621-1.489.853-1.274.857-.528 1.581-.014 1.193.539 2.374 1.426 1.077.427.075-.762.3-.926-.835-.515 1.685-.423-.894-.221-1.011-.926-.78-1.95 1.188-.313-1.514-2.538-2.045.359-.572-1.272-.836-.863.448-1.222 1.314-.678 1.381.072 1.151-1.224-.06-1.19-3.105.171-.034-1.22-1.788-.711-.719-1.274-1.139-.133-.932-.947-1.393 1.22-1.84-.194-5.784-4.497.246-1.023-1.169-1.886-4.056-1.159-1.711-.825-.338-.775.961-.884-.971-.721-1.633-.122-1.907-.429-1.863-.703-2.153-.254-1.332-1.5-1.609.207.512.988-.756.532-3.329-.824-2.32-.127-3.097-.859-1.543-.653-2.86-1.053-3.3-1.219.012-.783-.909-.27.427.889-3.451.019-2.851-.913 1.136-.638 2.147-.293-.237-1.123.501-.267 1.314-.043 1.127.342 1.865.272.346.498 1.377.17 1.52-.156.715.422-.3.444 1.59-.261-.564-.573.808-.479.01-.005 1.827-.444 1.778.173-1.143-.661-.714-.929-.633-.308-.117-.434.417-.258 2.742.352 4.422-.43 1.393.022 2.657-.387 2.574-.242.833-.305 1.822.945 4.6.093.42.445 1.838-.022 1.948.584 1.086-.378 2.782-.206.321-.284-1.648-.614 1.496-.841 1.609.378 1.498-.258-.333-.408 3.537.593 1.716-.296 2.916.716 1.58-.155 3.612.624-.07.395-.865.686-1.637 1.181-2.426.382-2.034-.139-.621.24-2.68-.658-4.106.003-3.641.048-3.416-.02-2.399.984 1.794.327 1.627-.519 4.8.104-.142 1.332 4.013.887 5.658.089-.423-.839 3.613 1.098 2.383.872-1.125.364 1.943 1.039 2.452.528 3.864 2.168 4.785 2.294 7.681 2.062 9.363 3.282-1.805-1.528.51-.484-.916-.935-1.78-.58-1.411-1.015-.183-1.395 1.376-.064 2.839.75 2.099.171 3.317.699 4.746 1.95 1.664.591 4.069 1.983 4.034 2.131 1.99 1.098 3.067 2.008 1.006.815.154.517 3.263 2.224ZM202.047 30.953l-.137.057-.864-.018-1.484-.431.087-.202 1.084-.348 1.387-.065 1.171-.037.132.469Zm65.01 150.562.201-.958 1.617.03.655-.163.493.473.325-.043.122.249 1.23.274 1.843-1.107.09 1.228-1.854 1.514-1.92 2.926-1.331-.13-.127-1.589-2.481.046.128-.723 1.444-1.796ZM36.9 155.702l.331.784.282 1.419-.355.626-.756-1.885Zm.93 1.884-.222 2.598-1.091 1.215.077-.657.742-1.121.332-1.78Zm-2.763 3.189.1.712-.923 2.562-.749 1.296-.192-.403.613-1.801.194-1.418Z"/><path d="m207.54 91.798-.041-.932.769-.233.987.766 2.6 1.491-1.112 1.383.318 2.017-.414.619.365 2.287-.831.266-1.943-1.407.38-1.055-1.181-.624-1.713-2.111-.844-2.042 1.337-1.141.526.879Zm23.886 23.394-1.134 1.745-.702.553-.528-2.068-1.806-.63-1.121 1.45.389 2.197-.494 1.556-1.437-.341-1.363.53-1.745-1.188-.392.913-.639.278.446 1.929-2.273.003.15 1.68-1.123.21-.253 2.235-.466 3.497-1.148 4.532.696.957-.245 1.269-1.382.142-.433 2.974.747 4.056 1.223 1.437.086 3.697-1.003 2.296-.461 1.884-1.359-1.797-2.853 3.928-2.197.898-2.443-1.476-.771-3.35-.855-7.174 1.27-2.056 3.627-2.837 2.383-3.411 1.775-4.506 1.842-6.182 1.422-2.541 2-4.236 1.882-1.791 1.741-.299.58-2.735 1.809-.427 1.44-1.12 3.977.852-.84 1.199Zm-17.72-26.018-.057 1.587-1.44.77-1.814-.007-.369-.687-.796.125-.985-1.066 1.323-1.061.983.426.172-.89 1.544.26Zm1.331 6.02-.96 1.464-1.401-.311.178-.784-.709-.741 1.053-.851.67.901Zm-32.888-16.388 2.31-.399.87.754 1.137-.51 1.186.377 2.194 1.404 1.06 2.618-1.205.697-1.538-.428-2.168-.651-.129.484 1.527.346.672 1.271 1.219-.454-.131.977-1.254 1.251 1.612-.546 2.545-.4 1.151.765-.083 1.142-2.624 1.399-.52.516-1.827-.003 1.14.447-1.432 1.687-1.206 1.524-1.281 2.87.053 1.923-1.107-.191-1.505.482.654 1.774-.81 2.298-.927.008.018 2.591-1.882-.345.453 1.38-.694.864-1.381.041-1.18-.382.193 2.167-.551 1.204-1.203-1.7-.816.55.857 1.091.416 2.051-.636 2.32-1.985-.046-.227-1.307-.356-1.965-.636 1.936-1.852.994 2.508 1.057 1.299.609-3.852 1.452-3.912 1.058-3.525-.379-1.115-.513-1.69.501-3.24 2.033-3.472.603-.784-.305-1.818-.184-1.896-.318-2.078.984-1.402 1.751-1.826 1.298-3.312.81-1.139 2.266-2.14 1.733-2.519 2.057-1.695-1.022.102-3.263-2.043-1.727.246-2.141 1.545-2.849 1.314-4.278 1.103-1.861 2.015-2.071 1.168-3.062 2.059-1.273.387-1.234 3.566-1.701 1.946.261 1.285-.614 2.026-1.499-1.623-.005-.724-.053-.937-.312.042-1.484 1.68-1.38 1.582-.785.591.556.609 1.81.509-2.342.34-1.219-.922-.34.182-.99 3.005-1.084.647-1.048 1.417-1.715 2.262-2.53.516-1.33 1.142-.693.618-2.29-.506-1.175-.934-1.308-.887-1.172.654-1.011 1.5-1.637 1.522.912.647.894-.201-2.35.819-1.508 1.209-.338 2.152 1.124 2.206.915 1.149-.314.513-1.462 1.352-.147 2.738.313.61.325 1.207-.72 1.236.339 1.105.629.743.806-.546.791 2.109-.24-.281 1.235.221.484-.123 1.114.548-1.575Zm58.105 290.887 1.508-.695.97.043.289.292 1.195-.182 1.628-.188 1.483-.378 2.65-1.007 1.641-3.748.69-.012 1.226.635-.535.697.446.208 1.999-.593 1.578-.814 1.44-.661.903-.697 1.439-.621 1.082-.191 1.148-.068 2.159-.601 1.842-.79.442-.433.727-.692 1.508-.566 1.008-.702 1.263-1.097 2.81-1.75 4.179-2.309 1.072-.39 1.175-.268.959-.504 1.335-.423.369 1.294.2.598-1.203 1.506-.041.326-1.148.312-.78.375-.436.424-.953.694-.221.37 1.119-.016 1.543-.713.828-.692 1.882-.789-1.17 1.057-.92.99-.987.725-2.068 1.188-.59.334-1.436.897-1.079.738-1.951 1.17-3.562 1.885-2.185 1.086-2.192.98-2.842 1.129-1.283.438-.52.291-1.389.367-1.36.501-2.56.659-1.59.504-1.004.249-2.832.93-2.253.636-1.771.595-1.167.281-.873.033-.851.179-.873-.032-.191.11-.206-.093.311-.376-.517-.273.926-.301.301-.536-1.312-.357-.98-.418h-.009Zm33.181-8.705-.885.101-1.327.619-1.649.851-1.784 1.039 1.36.029.963-.398.688-.443 1.508-.642.659-.451 1.119-.738Z"/><path d="m273.435 360.988.652-.033-1.119.738-.659.451-1.508.642-.688.443-.963.398-1.36-.029 1.784-1.039 1.649-.851 1.327-.619ZM63.759 71.272l-1.361 1.855-1.42 2.064-.19.097-2.561 3.317-3.657 5.108-2.045 3.644-.773 1.477.655-.616-1.577 3.226-.889 1.233-.935 1.454-1.186 1.821-1.085 1.469-1.046 1.368-.865 1.5-1.079 2.115.757-.082-.528 1.567-1.075 2.061-1.356 2.163-1.088 1.707-1.187 2.192-1.138 1.696-.822 1.418-.854 2.167-.66 1.865-.141.745-1.017.837-.87.986-1.67 2.39-.551.732-.742 1.418-.727 1.606-.984 1.95-1.132 2.9-.716 1.647-.683 1.844-.689 2.857-.568 1.753.001 1.353-.107 1.465.008 1.272.052 1.028.326.541.597-.686.929-1.564.315-.229.236.924.213 1.808-.047 1.988.121 1.137-.236.959-.563.948-.698.088-.678.77-.184.772-.463.585-.81 1.115.262-1.112-.015-.423-.01-.392-.596.496.127-.657-.039-.165-.146.328.091-2.071.125-2.056-.547 1.177.077-.993-.383 1.527-.272 1.31-.216.708-.077.489-.304.667.213-2.857-.604.655-.19.712-.168.239-.232.562 1.195-4.803.441-1.831.509-2.352.146-1.092.001-.995.141-.912.569-2.102.555-2.037.937-2.984.583-1.918 1.169-3.386 1.041-2.755.441-1.067.477-1.311 1.119-2.796.797-1.766 1.504-3.347 1.105-2.233.735-1.402-.201.516.405-.746.078-.002.383-.628.812-1.512.542-.907.903-1.598 2.028-3.536 1.961-3.368 1.284-2.019 1.417-2.363.514-.764.659-.72.856-1.367 1.297-1.913 1.233-1.573.709-1.141 1.398-1.905 1.23-1.609.496-.545 1.722-2.097 1.552-1.747.557-.511 1.46-1.848.34-.537 1.12-1.389-.416.273-.923.955-1.223 1.227-1.02 1.202-1.895 2.352-.534.651-.283.384-.641.76-.193.306-1.131 1.354-.711.963-.731.951-1.41 1.985-1.599 2.126-.903 1.291-.906 1.311-.713.983-.583 1.001-.998 1.562-.929 1.478-.189.267.031-.202.202-.359 1.012-1.571 1.424-2.245 1.433-2.215.92-1.405.875-1.128.874-1.158.973-1.393 1.427-1.993-.003-.05.657-.874 1.099-1.515 1.533-1.962.006.02-.608.843.037.122.574-.604 1.971-2.445 1.144-1.45 1.367-1.534 1.435-1.56 1.788-1.883Zm-.997 247.787.381.411.675.67-.916-1.098-1.488-1.704-.576-.583-.356-.511-.447-.645-.608-.833-.785-.914-.426-.416-.641-.73-.612-.81-1.129-1.61-.611-.818-1.343-1.666-.434-.436-1.805-2.265-1.287-2.136-.99-1.501.276.239-.685-1.164.023-.235-.424-1.044-.9-1.555-1.073-1.547-.489-.921-.238-.769-2.897-3.823-1.456-2.939.409.548-.332-.838-.496-.948-.465-1.195-1.032-1.735-.879-1.252-.766-1.407-1.049-1.77-.763-1.538-1.555-2.644-1.903-4.065-.288-1.184-.362-1.041-.266-1.317-1.471-2.424-.407-.354-.744-1.04-.067.143-.531-1.061-.808-1.775-.458-.868-.504-1.223-.771-3.024-.46-.562-.798-1.99-.606-1.955-.579-1.586-.042-.44-.74-2.532-.716-2.852.131.194-.164-.912.381.725-.269-1.393.099-.185-.079-.852.813 1.067.708 1.391.091-.034.893 2.098.027-5.049-.008-.916-.185-1.622-.453-1.791.01-1.626.574.869.204.676.05-.791-.591-1.517.032-1.447 2.061 4.321.405-.059.283 1.321.183 1.766.225.127.621 2.383.946 1.528.255-.274.951 1.056.547.509.188-.715.975.861-.048-.593-1.105-1.988-.091-1.738.176-1.446-.524-1.553.258.184.935 1.869 1.013 2.255.44.058 1.033 1.146 1.683 1.447.631-.129-.125-.931.787.968.288 1.007-.3.755.489 1.06.251 1.537-.49.252-.375 1.63.326 1.681.064 1.205.917 2.32.774 1.111.185-.228.51.543.748.51.554.043.912 1.297.408.397.916 1.259.172-.287-.263-.783.205-.465.683.998.834.684.986 1.597.759 1.314.588-.025.401.525.222.905.889.75.757-.141.672-1.125 1.273-1.02.664.526.382 1.752.87 5.066 1.047 1.36.007 1.619-1.501.485.607 1.247 3.554 3.562.106 2.296 1.544-.101 2.662 3.006 3.642 4.207 1.121 2.104-.305.93 2.574 1.273 4.531 4.304 3.535 2.268 3.687 4.032 3.331 4.255 1.981 1.716 2.168 1.299.986 1.161 1.13 3.059.569 1.439-.556 2.688-1.087.536-3.006.62-1.093 1.156-1.395.482-.584-.332-.307.891 1.177 3.334.276 2.145.173.906-.468.165.529 1.827-1.295.482.456 1.265-1.399-.572.015.508-2.307-1.635-2.902-1.863-.996-.46-1.93-1.349-1.463-.757-.531.014.552.777.925 1.001.838 1.023.175.263-.572-.42.241.307-4.642-4.489-4.483-4.648Z"/><path d="m32.524 273.593-.202-.468-1.139-2.54-.049-.181-.472-1.104.005-.162-.608-1.65-.443-1.311-.003-.222-1.887-5.146.808 1.775.531 1.061.067-.143.744 1.04.407.354 1.471 2.424.266 1.317.362 1.041.288 1.184 1.903 4.065 1.555 2.644.763 1.538 1.049 1.77.766 1.407.879 1.252 1.032 1.735.465 1.195.496.948.332.838-.409-.548 1.456 2.939 2.897 3.823.238.769.489.921 1.073 1.547.9 1.555.424 1.044-.023.235.685 1.164-.276-.239-.318-.554-1.873-2.663-1.361-1.817-2.135-2.883.241.607.522.887.777 1.285-.444-.682-.508-.786-3.39-5.496-3.196-5.611-2.999-5.719Z"/><path d="m19.428 235.233-.215-.979-.406-1.921-.456-2.317-.59-3.207-.426-2.521-.023-.241-.462-3.213-.055-.84.195.428.136 1.197-.07-.125.098.876.159.766.213 1.172.333 2.069.178.385-.056-1.052.171-.529.663 1.865.606.147.174-.749-.119-2.011.189.391.497 2.56.265 1.778.382 1.62.58 3.652.651 1.945.455.64.352 1.196.55 1.136.809 2.729-.452.817.293.713.609 2.266-.893-2.098-.091.034-.708-1.391-.813-1.067.079.852-.099.185.269 1.393-.381-.725.164.912-.131-.194.716 2.852.74 2.532.042.44.579 1.586.606 1.955.798 1.99.46.562.771 3.024.504 1.223.458.868 1.887 5.146.003.222.443 1.311.608 1.65-.005.162.472 1.104.049.181 1.139 2.54.202.468-2.641-5.893-2.433-5.981-2.224-6.063-2.01-6.136-1.795-6.203-1.578-6.262Z"/><path d="m27.473 240.138-.225-.127-.183-1.766-.283-1.321-.405.059-2.061-4.321-.032 1.447.591 1.517-.05.791-.204-.676-.574-.869-.01 1.626.453 1.791.185 1.622.008.916-.027 5.049-.609-2.266-.293-.713.452-.817-.809-2.729-.55-1.136-.352-1.196-.455-.64-.651-1.945-.58-3.652-.382-1.62-.265-1.778-.497-2.56-.189-.391-.298-1.503-.325-1.861-.187-.29-.519-2.241-.129-1.529-.108-.39-.506-3.578-.042-1.003.199.682.033-1.229.173-.281.284.982.347-.459.332-.319-.167-1.377.251-.891.128-2.584.208-.115.2-2.285-.027-2.129.274-.812.155.891.239-.256.131-1.864.141-.056.296 1.23.825.096.329.675.181-.733.598-1.533.678.207.474 1.353.186-.305.559 1.925.955.557.475.34.736-.07.274.91.066 1.187-.393.363-.675-1.008-.527.6-.497-.182-.458.221-.491 1.382-.525.735.393 1.305-.114 1.339.088 1.002-.113 1.098-.259.592-.054.559.182.742.073 1.334 1.219 2.616.514 1.567.409 3.533.453.635.748 1.694.663.967.344 1.171-.368.856-.345.294-.272 1.477.078 1.965.264 1.296-.004.585-.648.041.372 1.284.259 1.376Z"/><path d="m20.263 199.936-.141.056-.131 1.864-.239.256-.155-.891-.274.812-.068-1.414.119-1.71.253-.054-.104-.725.058-1.179-.115-1.757-.243-.85-.262.329-.299-.345-.11-.424-.135.25-.032 2.314-.172-.325-.121.005-.212-.955.183-1.745-.124.09-.097-.891.106-1.37-.109-1.088-.029-.856-.129-.976-.108.422.036-.603.107-.33.12-.268.078-.489.102.071.015-.812.207-.913.161.677-.076 1.628-.115.431.111 1.011.073.03-.023 1.186.22.955.3.401.364.918.313.1.235 1.378-.07.141.266 1.343.151 1.401.031 1.415Z"/><path d="m18.399 186.112-.161-.677-.207.913-.015.812-.102-.071-.078.489-.12.268-.107.33-.04-1.743.051-.933.113-.128.1-.584.059-1.172.018-1.337.002-1.069.147-.811.054-.996-.151.797-.163.08.116-1.146.01-.951.097-.765.175-.657.204-.407.051-.952.147.097.1.059-.063 2.086.12.226.01.918-.091.834.024.823.185.064-.262 1.789-.126 1.789Z"/><path d="m18.884 180.509-.185-.064-.024-.823.091-.834-.01-.918-.12-.226.063-2.086-.1-.059.157-1.485.218-1.955.21-1.245.191-1.645.304-2.133.114-.085-.103.701.053.019.045.608.175-.216.016.315.368-1.125.036.475.013.486.229-.1-.125 1.111.11-.04.116.153.27.178.167-.418.008.237.216-.235.042.171-.095.715.001.553.149.208.053.565.187.494.147.002.07.81-.102.021-.197.382-.267 1.046-.328.242-.334.649-.336.909-.173.695-.311 1.06-.106-.131-.311.743-.157.744-.212.113-.159.699Z"/><path d="m21.941 172.618-.07-.81-.147-.002-.187-.494-.053-.565-.149-.208-.001-.553.095-.715-.042-.171-.216.235-.008-.237-.167.418-.27-.178-.116-.153-.11.04.125-1.111-.229.1-.013-.486-.036-.475-.368 1.125-.016-.315-.175.216-.045-.608.224-1.076.058-.872.306-.721.082-.545.054-.617-.085-.733.105-.372.138-1.03.17-.918.087-.847.192-.079.166-.601.155-.25.215.451.318.202-.035.318.154.11.016.607-.07.384.048.24-.057 1.232.056.975.128.48.111.014-.009.829-.028.679.059.534.108.253-.043 1.324.011.401-.1 1.093-.129 1.135-.044 1.153Z"/><path d="m20.882 159.94-.087.847-.17.918-.138 1.03-.105.372.085.733-.054.617-.082.545-.306.721-.175.261.018-1.344.084-1.024.171-1.365.094-1.388.194-1.106.108-.241.162.226.072.18.097-.373Z"/><path d="m21.412 153.241.232-.562.168-.239.19-.712.604-.655-.213 2.857.304-.667.077-.489.216-.708.272-1.31.383-1.527-.077.993.547-1.177-.125 2.056-.091 2.071-.765 1.668-1.027 2.237-.017.667-.173 1.113.128-.127-.117.933-.318-.202-.215-.451-.155.25-.166.601-.192.079-.032-.391-.097.373-.072-.18-.162-.226-.108.241.2-1.528.115-1.45.241-1.453Z"/><path d="m23.899 153.172.146-.328.039.165-.127.657.596-.496.01.392-.151.32-.007.432-.273.537-.427.565-.151.521-.344.535-.091.347-.47.829-.235.126-.023-.333-.301.303.017-.667 1.027-2.237Zm12.333 90.895.125.931-.631.129-1.683-1.447-1.033-1.146-.44-.058-1.013-2.255-.935-1.869-.258-.184.524 1.553-.176 1.446.091 1.738 1.105 1.988.048.593-.975-.861-.188.715-.547-.509-.951-1.056-.255.274-.946-1.528-.621-2.383-.262-2.924-.259-1.376-.372-1.284.648-.041.004-.585-.264-1.296-.078-1.965.272-1.477.345-.294.368-.856-.344-1.171-.663-.967-.748-1.694-.453-.635-.409-3.533-.514-1.567-1.219-2.616-.073-1.334-.182-.742.054-.559.259-.592.113-1.098-.088-1.002.114-1.339-.393-1.305.525-.735.491-1.382.458-.221.497.182.527-.6.675 1.008-.173.486-.594-1.01.016 1.772-.311 1.192-.709.38-.07 2.668.423.801.574-1.19-.095-1.496.385-1.871 1.412 1.759.159-1.397.54.017-.085 2.424.705 1.549.354 2.705-.144.861.98 1.944 1.286 2.032.441 2.268.876 1.913.868.428.155-.569 1.649 2.435 1.647 2.433-1.327-1.04.223 1.831 1.078 1.821.847 2.721-.122 2.237.776 1.003.49 1.355-1.418-.216-.265.683.372 1.578-.433-.069-.955-.885-.124 1.122-.474.088Z"/><path d="m42.28 260.155-.408-.397-.912-1.297-.554-.043-.748-.51-.51-.543-.185.228-.774-1.111-.917-2.32-.064-1.205-.326-1.681.375-1.63.49-.252-.251-1.537-.489-1.06.3-.755-.288-1.007-.787-.968-.773-3.166.474-.088.124-1.122.955.885.433.069-.372-1.578.265-.683 1.418.216.859 2.204.716 2.784-.133 1.276.593.813.71 2.225.539 1.597-.501 1.798-1.053-.605.034.656-.405.832.586 2.567.525.644.137 1.563Z"/><path d="m45.813 263.158-.986-1.597-.834-.684-.683-.998-.205.465.263.783-.172.287-.916-1.259-.917-3.201-.137-1.563-.525-.644-.586-2.567.405-.832-.034-.656 1.053.605.501-1.798 1.952 2.837.235-.215 1.42 1.405 1.828 2.702-1.141 1.027-.005 1.751.594 2.138-.385.656-.219.888Z"/><path d="m51.374 264.341-1.273 1.02-.672 1.125-.757.141-.889-.75-.222-.905-.401-.525-.588.025-.759-1.314.506-.47.219-.888.385-.656-.594-2.138.005-1.751 1.141-1.027.589.914 1.284 1.954 1.792 3.977Zm157.404-80.749 1.039.789 3.072.388-.9 2.278-.106 2.312-.564.591-1.005-.233.121.814-1.502 1.9.034 1.46 1.037-.559.845 1.368-.034.916.74 1.17-.732 1.03.743 2.456 1.279.326-.173 1.413-2.011 1.953-4.667-.666-3.396 1.126-.249 1.94-2.762.434-2.666-1.481-.875.677-4.308-1.603-.883-1.298 1.292-1.876.696-6.407-2.131-3.491-1.514-1.724-3.205-1.475-.014-2.363 2.797-.496 3.51 1.027-.484-3.677 1.915 1.47 4.911-2.402.639-2.633 1.775-.649.302 1.125.949.043.975 1.275 1.484 1.485 1.06-.285 1.885 1.392.482.261Zm7.212 21.613 1.411-1.364.643 2.717-.577 2.549-1.142-.556-.719-2.116ZM19.476 224.433l.119 2.011-.174.749-.606-.147-.663-1.865-.171.529.056 1.052-.178-.385-.333-2.069-.213-1.172-.159-.766-.098-.876.07.125-.136-1.197.111-.439-.157-1.469-.104.16-.307-2.353.048-.166-.145-2.417.134.468.058-.964.167-.577-.019-1.082.263.787.365.671.506 3.578.108.39.129 1.529.519 2.241.187.29.325 1.861Zm17.552-23.548.502 1.255.022.848-.531.085-.851-1.56-.682-1.125.34-1.141.296-.051Zm-9.578-23.789.295 1.66.081 1.691-.163.979-.446-1.479-.339-.276-.159-1.585.055-2.067.292-.249.292.75Zm3.345-20.485.186 1.988.27 1.697-.043 2.736-.273 1.645.582 1.736-.103 1.267-.278 3.178-.16 2.339.216.671.145 1.719-.365.49.445 1.657.082 2.538-.339.284-.603-1.123-.502-1.322-.351-1.646-.932-2.854.981.181.062-1.456-.27-1.526.153-1.386.542-1.774-.311-1.12-.084-2.585.132-1.099-.278-3.12.128-1.169.425.257-.228-2.206-.819-.416-.11-.859-.324.212-.228-.833.041-1.116.465.47.484-.305.369.497.365.671.319 1.406Zm252.718 194.577-1.335.423-.959.504-1.175.268-1.072.39-1.452.034-2.001.542-.477-.57.174-.478-1.117.253-2.624-.495-.626-.548-.491-.078-.764-.837 3.105-.837.858-.126.953-.347 1.813-1.499 2.747-2.114 1.028-.481.47-.666 1.741-1.22 2.134-1.012.023.53 2.283-.93 1.154-.167.471.154 1.241-.415 1.24-.084-.625 1.958-.871 1.259-.515 1.146.26.247-.624.964-.445.293-1.111 1.293Z"/><path d="m278.972 352.773-4.179 2.309-2.81 1.75-1.263 1.097-1.008.702-1.508.566-.727.692-.442.433-1.842.79-2.159.601-1.148.068-1.082.191-1.439.621-.903.697-1.44.661-1.578.814-1.999.593-.446-.208.535-.697-1.226-.635-.69.012 1.146-3.461 2.818-.713 1.359-4.846 2.168-.589 4.555-1.699.94.294 1.961-1.097.871-.262 1.678-.815.48-.046.764.837.491.078.626.548 2.624.495 1.117-.253-.174.478.477.57 2.001-.542Z"/><path d="m251.618 363.83-1.641 3.748-2.65 1.007-1.483.378-1.628.188-1.195.182-.289-.292-.97-.043-1.508.695-1.779-.32-.831-.507-.309-.861-.468-.637-.508-1.532.255-1.382-.225-.602-1.035-.332-1.333-.821-1.304-1.354-.522-.766-2.273-1.049-.058-1.082 1.497-.466 1.844-.492 1.958-.235 1.717.394.469-.172 12.119-2.275 1.905.268 7.031-1.465 5.435-2.01 2.431-1.009 1.827-.46 1.028-.001-.011.117-1.678.815-.871.262-1.961 1.097-.94-.294-4.555 1.699-2.168.589-1.359 4.846-2.818.713Zm-109.309-76.527-1.03-2.41-1.369-1.338 1.345-.19 1.615-1.575.845-1.251 1.108-.645 1.44.58 1.496-.284 1.655.332 1.348 1.115 1.911 1.139 1.648 2.389 1.857 2.256.021 1.726.485 1.658 1.094.96.198 1.089-.194.811-.451.072-1.65-.509-.25.256-.675-.065-2.151-1.07-1.463-.319-5.567-1.311-.835.117-.986-.317-1.619.054-.318-2.171 2.713.709.753-.211.542.1 1.163-.371 1.241.848 1.309.33 1.35-.338-.548-.903-1.033.245-.93-.213-1.134-.924-.952-.17-.733.487Z"/><path d="m157.782 293.665.194-.811-.198-1.089-1.094-.96-.485-1.658-.021-1.726 1.051-.315.63-1.531.963.1 2.067 1.123 1.756-.276 1.162.361.499-.545 12.306 1.445.767-1.888-.517-.395-.868-12.471-.649-12.913 4.441.38 9.654 7.17 10.026 6.655.719 1.365 1.892.821 1.413.455.047 1.836 3.378-.355.102 6.565-1.671 1.917-.252 1.726-2.764.484-4.248.243-1.148.974-1.999.075-1.999-.035-.778-.557-1.721.333-2.927 1.02-.613.825-2.456 1.088-.445.674-1.32.465-1.497-.473-.874.596-.517 1.815-2.56 2.006.051.907-.893 1.04.159 1.546-1.304.266-.746.254-.452-1.172-.914.202-.541-.107-.603.698-2.427-.307-.853-.501-.415.188-.927-.877.2-.76-.38-.359-.673.17.16-.84.668-.596-1.226-1.286-.333-.787-.663-.685-.609-.156-.765.268-1.02.207-.876.448-1.31-.425-.816-.816-.505-.17-.828.216-.487-.078Z"/><path d="m143.593 266.371.741-.81 11.268 2.481-.098-4.323.871-1.379 2.727.234.739-7.639 9.288 1.621.417-4.586 10.24 8.526-4.441-.38.649 12.913.868 12.471.517.395-.767 1.888-12.306-1.445-.499.545-1.162-.361-1.756.276-2.067-1.123-.963-.1-.63 1.531-1.051.315-1.857-2.256-1.648-2.389-1.911-1.139-1.348-1.115-1.655-.332-1.496.284-1.44-.58-1.108.645-.098-1.554.969-1.176.646-2.56.004-2.867-.187-1.501.462-1.358-.576-1.542Zm58.625 46.892-2.646.299-.796-1.719.156-5.841-.642-.538-.123-1.276-1.096-.926-.969-.785.406-1.382 1.096-.287.642-1.155 1.549-.246.693-.796 1.056-.789 1.136-.018 2.419 1.502-.119.889.717 1.553-.609 1.072.336.698-1.538 1.641-.983.807-.593 1.625.084 1.623Z"/><path d="m237.917 264.618 1.138 4.438 1.166.567.128.916 1.319.779-.522 1.352-.647 5.99.124 3.689-3.672 3.246-1.094 3.826 1.328.823.102 1.747 1.971-.248-.235 1.324-.854.291-.053.87-.573.148-2.246-2.645-.727-.008-2.334 1.845-2.435-.49-1.681.04-.878.481-1.828.111-1.797 1.336-1.583.209-3.834-1.091-1.457.769-1.603.057-1.195-.957-3.163-.864-3.355.446-.806.614-.426 1.573-.898 1.109-.198 2.395-2.419-1.502-1.136.018-1.056.789.067-1.841-3.627-.631-.095-1.313-1.751-1.811-.406-1.258.259-1.33 1.999-.075 1.148-.974 4.248-.243 2.764-.484.252-1.726 1.671-1.917-.102-6.565 4.268-1.445 8.513-6.286 9.773-6.685 4.708.647 1.777 1.369Z"/><path d="m202.218 313.263.176-4.049-.084-1.623.593-1.625.983-.807 1.538-1.641-.336-.698.609-1.072-.717-1.553.119-.889.198-2.395.898-1.109.426-1.573.806-.614 3.355-.446 3.163.864 1.195.957 1.603-.057 1.457-.769 3.834 1.091 1.583-.209 1.797-1.336 1.828-.111.878-.481 1.681-.04 2.435.49 2.334-1.845.727.008 2.246 2.645.573-.148 1.279.871-.317.537-.109.907-2.509 2.441-.755 1.793-.382 1.414-.641.672-.564 1.891-1.637 1.274-.447 1.349-.685 1.107-.267 1.083-2.154 1.1-1.803-.83-1.198.168-1.857 1.645-.927.111-1.475 2.517-.793 1.795-3.321 1.124-1.213-.047-1.231.615-2.566.086-1.733-1.437-1.064-1.726-2.285-1.55-2.414.089Z"/><path d="m239.023 293.067 1.328 1.516.298 1.733-.018 1.775 1.802 2.093-1.729.265-.862.327-1.432-.04-.618 1.33 1.903 1.218 1.374.214.482.987 1.046 1.582-.456.765-1.485 2.796-.741.571-.182 1.946.344.978-.243.765 1.521 1.02.279.816 1.187 1.032 1.446.511.152 1.046.336.621-.21 1.293-2.491-.118-2.556-.199-3.982.503-.4-.07-1.869.553-1.936-.065-1.51.332-5.193.505.444-1.897-1.259-1.453-1.466-.273-.657-1.022-.833-.278.038-.672.793-1.795 1.475-2.517.927-.111 1.857-1.645 1.198-.168 1.803.83 2.154-1.1.267-1.083.685-1.107.447-1.349 1.637-1.274.564-1.891.641-.672.382-1.414.755-1.793 2.509-2.441.109-.907.317-.537-1.279-.871.053-.87Zm-42.515 8.028-.406 1.382.969.785 1.096.926.123 1.276.642.538-.156 5.841.796 1.719-2.59.51-.714-.877-.849-1.598-.249-1.256.712-2.274-.789-.946-.298-2.042.023-1.893-1.316-1.386.235-.817Z"/><path d="m193.737 300.983-.235.817 1.316 1.386-.023 1.893.298 2.042.789.946-.712 2.274.249 1.256.849 1.598.714.877-5.047 1.331-1.785.777-2.895.576-2.858-.85.16-.954-1.37-2.213.878-2.77 1.373-2.048-.788-3.716-.397-1.989.109-1.492 5.488.16 1.399.245 1.03-.397Z"/><path d="m168.29 301.198.415-.188.853.501 2.427.307.603-.698.541.107.914-.202.452 1.172.746-.254 1.304-.266 1.403.7.535.91 1.409.667 1.12-.57 1.483.01 2.155.811.788 3.716-1.373 2.048-.878 2.77 1.37 2.213-.16.954-1.454-.064-2.229-.638-2.049-.134-3.785.079-2.224.47-3.162.529-.616-.137.289-1.969.303-.27-.071-.978-1.321-1.198-.997-.296-.903-.803.712-1.015-.282-1.257.169-.715.499.066.227-1.083-.233-.524.317-.314 1.176-.159-.711-2.158-.682-1.168.293-.848Z"/><path d="m151.142 292.03 1.463.319 2.151 1.07.675.065.25-.256 1.65.509.451-.072.118 1.007.487.078.828-.216.505.17.816.816 1.31.425.876-.448 1.02-.207.765-.268.609.156.663.685.333.787 1.226 1.286-.668.596-.16.84.673-.17.38.359-.2.76.927.877-.627.124-.293.848.682 1.168.711 2.158-1.176.159-.317.314.233.524-.227 1.083-.499-.066-.881-.183-.677.927-.882-.137-.604-.626.248-.984-1.25-1.751-.833.165-.665-.047-.871.011.072-.933-.465-.752.133-.729-.622-1.199-.826-1.072-2.47-.431-.748.363-.846-.098-.562.462-.392.646-1.699.815-1.268-1.788-1.132-1.259-.76-.497-.726-.68-.276-1.228-.41-.673-.844-.623 1.431-.991.914.245.828-.276.668.134.506-.252-.203-.935.359-.211Z"/><path d="m142.135 290.573 1.619-.054.986.317.835-.117 5.567 1.311-.118.893-.359.211.203.935-.506.252-.668-.134-.828.276-.914-.245-1.431.991-1.542-1.466-1.255-.468-.624-.904.042-.401-.86-.779Zm24.642 16.937-.169.715.282 1.257-.712 1.015.903.803.997.296 1.321 1.198.071.978-.303.27-.289 1.969-.834-.084-3.236-1.588-2.814-2.272-2.639-1.772-2.05-1.953.77-.674.195-.702 1.467-1.134 1.496-.958.665.047.833-.165 1.25 1.751-.248.984.604.626.882.137.677-.927Z"/><path d="m151.937 301.957 1.699-.815.392-.646.562-.462.846.098.748-.363 2.47.431.826 1.072.622 1.199-.133.729.465.752-.072.933.871-.011-1.496.958-1.467 1.134-.195.702-.77.674-.835-.332-2.199-1.412-1.548-1.649-.502-1.031Zm24.608-.28-.159-1.546.893-1.04-.051-.907 2.56-2.006.517-1.815.874-.596 1.497.473 1.32-.465.445-.674 2.456-1.088.613-.825 2.927-1.02 1.721-.333.778.557 1.999.035-.259 1.33.406 1.258 1.751 1.811.095 1.313 3.627.631-.067 1.841-.693.796-1.549.246-.642 1.155-1.096.287-2.771-.112-1.458-.251-1.03.397-1.399-.245-5.488-.16-.109 1.492.397 1.989-2.155-.811-1.483-.01-1.12.57-1.409-.667-.535-.91Zm102.398 1.339-.94.582-1.874.562-2.222.454-1.095.555-.409.72-.956.367-1.199-.16-3.271 2.165-1.383.135-.404.301-.849 1.693-2.27.126-2.229.319-1.974-.418-2.552-.234-1.623 1.146-1.162 1.483-.235 1.724-1.987.28-2.111.02-1.835 1.612-1.608 2.486-.336-.621-.152-1.046-1.446-.511-1.187-1.032-.279-.816-1.521-1.02.243-.765-.344-.978.182-1.946.741-.571 1.485-2.796 2.557-.637.554-.754.515-.048.794.428 3.844-1.732 1.255-1.259 1.55-1.235-.358-.833.843-.423 2.953-.514 2.763-1.871 1.967-3.376 1.43-1.452 1.843-.955.424 1.028 1.837 1.145.093 1.05-.399 1.205.251.742 1.077.44 2.335.445 1.684.531.076.808 2.062.683 1.29.677.824 1.238 2.237.241Z"/><path d="m252.296 314.536-.147 1.466-.903 1.447-.594 1.573-.363 2.111.162 1.252-.503.882-.08.833-.361.782-2.059 1.464-1.439 1.392-1.393 2.34.078 1.721-.815.812-1.842 1.328-1.889 1.589-1.166-.177-.177-.55-1.723.24-1.099.941-.824-.09-1.167-.543-.965.475-1.298 1.046-2.561-1.865 2.445-1.444-1.182-1.253 1.093-.668 2.141-.541.272-.987 1.678.8 2.786-.319.978-1.166.422-1.512-.343-1.666-1.487-1.093 1.355-2.834-.787-.333-2.354.536-.898-1.064.229-1.048 3.982-.503 2.556.199 2.491.118.21-1.293 1.608-2.486 1.835-1.612 2.111-.02Z"/><path d="m229.801 321.163 1.51-.332 1.936.065 1.869-.553.4.07-.229 1.048.898 1.064 2.354-.536.787.333-1.355 2.834 1.487 1.093.343 1.666-.422 1.512-.978 1.166-2.786.319-1.678-.8-.272.987-2.141.541-1.093.668 1.182 1.253-2.445 1.444-3.24-1.763-2.101-1.559-1.937-2.072.106-.741.705-.771.773-1.699.642-1.742 1.083-.24 4.643-.48Z"/><path d="m224.608 321.668 5.193-.505.041 2.775-4.643.48-1.083.24-.6-.293Zm63.403 7.424 1.108.023 1.072-.129 1.721-.406 1.476-.089 1.165.287.444 1.273-.542.699-.81 1.709.226 1.251-.971.976-1.178 1.959 1.32-.173-8.571 4.76-.028 1.062-2.134 1.012-1.741 1.22-.47.666-1.028.481-2.747 2.114-1.813 1.499-.953.347-.858.126-3.105.837-.48.046.011-.117-1.028.001-1.827.46-2.431 1.009-1.665-.422-1.707-.731 1.013-5.207 6.122-1.669-.161-.515.529-.775-.399-.67.454-.954-.234-.468 1.009-.251.085.51 1.385-.457 1.823-.4.853.498 2.266-.496 1.843-1.144.489.709 2.138-.514.916.369.974.528 2.128-.777.125-1.784-.824.604-1.844.036-.71-.04.629-1.923.804-2.357-.532-.599.953-1.503.795-.51 3.836-1.755Z"/><path d="m293.388 328.491 2.626-.816.457.284.784.454.299 2.157-1.011 1.699.233 1.935.928-.453.811.112.774.708-.383 2.022-1.221.874-1.14 1.483-1.392-.201.134-1.055.77-1.02.026-.599-.938.051-.775.484-1.328-.138-1.32.173 1.178-1.959.971-.976-.226-1.251.81-1.709.542-.699-.444-1.273Z"/><path d="m297.554 330.57 2.027-1.078 3.054-1.018.73-.566 1.808-.959 1.028-1.02 1.532-.776 2.906-2.213 2.204-2.197.238.61-.488 1.891-.071 1.416-.633 2.694.183.596-1.101 1.629-1.326 1.693-1.906 1.881-2.471 1.834-3.085 2.236-3.454 3.072-1.082.75-2.191 1.9-1.192.828-.64 1.119.729.502.107.573-.164.389.474-.276-.743 1.336-.729.792.455-.056-.663.698-1.288.929-2.282 1.35-3.383 1.972-1.363.903-.086.388.587-.196-.603.681-1.882.789.102-.4-.054-.354.041-.326 1.203-1.506-.2-.598-.369-1.294 3.411-2.646 1.111-1.293.445-.293.624-.964-.26-.247.515-1.146.871-1.259.625-1.958-1.24.084-1.241.415-.471-.154-1.154.167-2.283.93-.023-.53.028-1.062 8.571-4.76 1.328.138.775-.484.938-.051-.026.599-.77 1.02-.134 1.055 1.392.201 1.14-1.483 1.221-.874.383-2.022-.774-.708-.811-.112-.928.453-.233-1.935Z"/><path d="m282.79 355.666-.828.692-1.543.713-1.119.016.221-.37.953-.694.436-.424.78-.375 1.148-.312.054.354Zm-47.631-19.774-1.16.586-.526.591-.126.893-.814.316-.804-1.408 1.298-1.046.965-.475Zm-2.201 2.946 1.315-.441.907-.088 1.119-.398 9.243-1.49.695 1.337.834 1.003.678.489 1.117.771 2.047-.566 1.024-.481 1.679-.098.495-.583.832-1.297 1.894-.511.186-.379 1.556-.378-.308.767 3.672-.932-.037 1.204.547.58-.542 1.255.118 1.086.932.421-.402 2.194.747-.356 1.287-.305 1.864-.779 1.334-.279.234.468-.454.954.399.67-.529.775.161.515-6.122 1.669-1.013 5.207 1.707.731 1.665.422-5.435 2.01-7.031 1.465-1.905-.268-12.119 2.275-.469.172-1.717-.394-1.958.235-1.844.492-1.497.466-.185-.894.552-1.381 1.195-1.561.228-.705 1.125-1.593.79-.78 1.858-1.347 1.063-.906.421-1.336-.096-.977-.887-.502-.764-.978-.705-.997.189-.407.996-.878-.864-1.7-.594-1.209-1.536-1.034Zm55.15-21.546.136.784.593.244.002.679-.722.72-1.156 1.523-1.075 1.149-1.187.542-.054-2.467-.687-.699 1.737-.481.912-1.552Zm-1.691-98.602-.097 1.114-.951-.019.148 2.181.675.06-.461.678.142.82.963-.908.418 1.111.256 5.21-.453-.648-2.595-3.669.375-1.27-.211-.096.186-1.655-.248-2.434.086-.895.055-.06.759-.353.031-.613.593-.331.434 1.186-.16.595Z"/><path d="m286.088 216.913-.593.331-.031.613-.759.353.004-2.779.392-2.6.003-.124 1.043-.33.76.97-.817 1.697Zm47.18 93.552.342.337.161.79-.369 1.889.246.391-.518 1.01-.559.806-.321-.459-.589.832-.093.962-.47.862-.738.847-.742 1.515-1.694 2.53-2.124 2.95-2.903 3.811-2.051 2.568-2.029 2.265-1.92 1.519-2.246 1.826-.983.494-1.377.659-.129-.304.633-1.1-.112-.598.374-.881.974-1.294 1.171-.916.265-.496 1.647-1.834.672-1.11-.189-.391.012-.715.421-1.355 1.157-1.437.706-1.26 1.155-.814 1.386-1.198.944-.88.987-.703 1.606-1.875 2.173-2.391.939-1.374-.06-.544.858-.475 1.568-2.16.36-1.142.937-1.379Zm-46.432-87.849-.963.908-.142-.82.461-.678-.675-.06-.148-2.181.951.019.581 1.794Zm-144.527 64.687 3.249.688.733-.487.952.17 1.134.924.93.213 1.033-.245.548.903-1.35.338-1.309-.33-1.241-.848-1.163.371-.542-.1-.753.211-2.713-.709Zm78.485-43.243-1.544-5.482-1.75-1.118-.076-.756-2.31-1.704-.362-2.355 1.529-1.883.448-2.655-.61-2.989.419-1.672 2.682-1.531 1.818.205.058 1.615 2.062-1.401.242.585-1.135 1.7.113 1.465.966.687-.089 2.768-1.596 1.769.646 1.662 1.371-.095.802 1.415 1.062.368.066 2.421-1.231 1.05-.755 1.091-1.778 1.398.392 1.254-.14 1.337Z"/><path d="m169.546 251.97.114-.579.009-.207.315-3.624 4.687-1.707 2.803-.171 2.325-.612 1.166-1.453 3.291-.976.241-2.302 1.599-.163 1.293-1.083 3.582-.348.538-1.201-.692-.693-.813-3.367-.091-1.927-.907-2.08 2.589-1.616 2.84-.454 1.668-1.276 2.516-.938 4.387-.584 4.263-.365 1.317.419 2.379-1.367 2.742-.192 1.087.665 1.744-.323-.419 1.672.61 2.989-.448 2.655-1.529 1.883.362 2.355 2.31 1.704.076.756 1.75 1.118 1.544 5.482 1.088 2.644.25 1.414-.325 2.553.306 1.378-.259 1.703.369 1.885-1.058 1.375 1.837 2.04.196 1.276 1.142 1.568 1.323-.699 2.389 1.126 1.417 1.704-9.773 6.685-8.513 6.286-4.268 1.445-3.378.355-.047-1.836-1.413-.455-1.892-.821-.719-1.365-10.026-6.655-9.654-7.17Zm116.774-32.166.097-1.114 2.89-.069 3.215-5.335 2.156 3.048-.26.661-3.945 3.775 3.213 1.744-.584.882-.061 1.157-1.618 1.285-.221 1.316-.73 1.385-2.76.786-.202-.388-.256-5.21-.418-1.111.065-1.018Zm42.099 1.101.287-.416.352.666 1.315-1.691 1.561-1.296 1.136-.926.511-2.925.607-2.935.392-2.681.709.575 1.118 1.823-.871.886.561 1.837.461.054-.581 1.293.42 1.07-.09 1.581.36 1.093-.15.897-6.064 3.714-1.727-2.071Zm-1.995-.128-.875-1.849-.038-1.834.403-.722.907.359.654 1.536.192 1.924-.459.634Zm-11.194-9.873.916.91.086.759 1.476 1.593-1.359 1.111-1.022-.951-1.888 1.016.379-3.698Z"/><path d="m294.678 216.334-2.156-3.048 3.533-5.618-.643-3.928-1.067-1.982.793-1.36.23-2.398.637-.959 2.417-1.053.999.284.686-1.077 2.795 2.53 1.631-.015.902 1.532-.512 1.627.528 2.495 2.523 1.729 3.036-.158 1.916 1.376.554 2.234.617-.458.652 1.447 1.68.646-1.199.724-1.412.74-.379 3.698-3.878 2.38-8.07-1.923-3.92-.142Zm41.989 2.579-.36-1.093.09-1.581-.42-1.07.581-1.293-.461-.054-.561-1.837.871-.886 1.514 1.002 1.332-.033 1.356-.943 1.167-.587 1.342.664.783.361.708-.329.227.576.026 2.177.024 1.004-.374 1.58.033 2.423-.811.687-.132.987.193 1.583.802 1.483-.055.48-.8.825-.783 2.083.23 1.419-.234.947-1.132 1.092-.519 1.342.319 1.023-.683 1.569-1.106.729-1.028 2.034-.849.948-1.15-1.233-2.808-2.951 4.838-7.735-.658-6.342Zm-1.378-9.637-.709-.575.094-1.376.313.012.319 1.236Zm42.872-64.114-.046-.139-.361-1.047-.713-1.997-1.002-3.149-.964-3.239-.538-1.771-.308-1.003-.88-2.39-.364-1.011 2.183 6.077 1.97 6.15Z"/><path d="m381.932 161.446-.028-.147-.025-.018-.033.076.324 1.653-.184-.777-.34-1.608-.609-2.751-.78-3.317-.812-3.231-.467-1.066-.341-1.015-.374-.922-.381-.187-.332-.523-.274-1.157-.889-2.621-.455-.469-.481-.104-.728-.751-.31-1.296-1.287-3.202-.294-1.621-.698-2.133-.493-1.698.151-.319.624 1.073-.272-1.373 1.21 2.642.872 1.766-1.122-3.505.01-.297-.363-1.332-.462-1.128-.398-1.499.286-.029.861 1.829.185-.001.726 1.806.588 1.626.538 1.771.964 3.239 1.002 3.149.713 1.997.184 1.038.447 1.955-.636-1.982.415 1.981.818 2.504 1.168 4.335.642 2.636.359 1.411-.257-1.415.262 1.053.112.537Z"/><path d="m372.985 129.416.364 1.011.88 2.39.308 1.003-.588-1.626-.726-1.806-.185.001-.861-1.829-.286.029.398 1.499.462 1.128.363 1.332-.01.297 1.122 3.505-.872-1.766-1.21-2.642.272 1.373-.624-1.073-.151.319-.507-1.188-1.138-3.105.229.268-.234-1.085-1.273-1.896-.443-1.376.624.28.785.798-.752-2.601.697.854.701 1.876.56 1.318-.18-1.401.556.538.329.384.004-.247.382.868.757 1.924h.001Z"/><path d="m371.641 132.561.493 1.698.698 2.133.294 1.621 1.287 3.202.31 1.296.728.751.481.104.455.469.889 2.621.274 1.157.332.523.381.187.374.922.341 1.015.467 1.066.812 3.231.78 3.317-.392-1.384-.583-2.346-.264-.504-.791-2.511-.244-.185-.84-1.806-1.027-2.251-.631-.766.636 2.512.876 4.03.016 1.063-.123.884-1.19-3.397-.894-1.513-1.117-.694-.4-1.022-.098 1.013-.883-.159-.934-1.542.17-.438-.857-1.536-.312-1.549-.518-.642-.441-1.182-1.339-2.192.23-1.195-1.146-2.598-.669-1.076-1.249-2.809-.813-1.058-1.252-4.004.095-1.13-.89-.998-.365-1.059-.555-.565-.275-1.326.788.415.214-.445 1.109 1.374 1.186 1.639 1.451 3.573 1.615 2.559-.549-2.549 1.099 1.289.008-.964 1.129 2.244.155-.846.031-.568-.678-2.127.47.735 1.138 3.105Zm1.097-3.791-.757-1.924-.382-.868-.004.247-.329-.384-.556-.538.18 1.401-.56-1.318-.701-1.876-.697-.854.752 2.601-.785-.798-.624-.28-.589-1.6-.45-1.663-.744-2.261-1.222-2.761.128-.307-.447-1.559.807 1.392.112-.235-.511-1.613 2.026 4.389 1.644 3.556.882 1.808.483.423.474.56-.224-.726.099.202Zm-66.023-81.786.088-.069.466.471 1.216.823 1.022.656 1.155.489 1.134.89.564.394 1.045.769 1.249 1.089 1.083.859.772.425.35.266-.313-.442-.12-.436.607.429.74.686 1.122 1.099 1.3 1.011.586.641.237.182.381.554.482.372.547.529-.263-.133.209.307.107.258-1.116-.849-.525-.474-.185-.038-1.271-.891-.19-.052.606.779.162.463-2.213-1.798-2.437-2.073-2.192-1.559-.104-.423-1.163-1.196-.691-.181-2.96-2.439-1.551-.921Z"/><path d="m321.018 57.216-.237-.182-.586-.641-1.3-1.011-1.122-1.099-.74-.686-.607-.429.563-.192.622.248 1.728 1.108 1.421 1.128 1.716 1.584 1.859 1.683 1.502 1.508-.658-.422-1.428-1.09-.994-.399-1.352-1.305Zm-.706 46.785-.279-1.858-1.971-4.156-1.144-2.925.748-.851-.027-1.518 1.099-.36-.028-1.437.378-1.833-1.916-2.319-1.376-.13-2.833-2.727.751-1.118.026-1.164.249-1.399 1.781.547.467-1.607-.86-1.572-.916-1.959-.196-1.311.608-.943.853-.383-.594-1.356-.445-1.668-1.205-1.535-1.338-2.006-2.74-2.594-.232-.741.331-.473-1.199-1.689 2.109 1.215 2.825 1.772.671-.038-.772-.906-.56-1.276-1.523-1.362-.089-.884.57-.749.852.417.566 1.03 1.697 2.182 1.264 1.252 2.08 1.652 2.179 2.633 1.974 2.03.409 1.378.249.774 1.786 1.489.569-.094.568.099 1.251 1.475 1.664 1.758 1.581 2.306 1.093 2.51 1.721 3.112 1.785 2.665-.418.333.604 2.048-.647 1.667.06 1.456.749 2.447.065 3.176.275 1.909-1.207.086-1.988-.635-.177.852-1.311 1.041-.278 1.99-.413 1.671-1.016-.11-2.707-2.47-1.947-.17-1.03 1.626-1.388.446Zm41.931 19.264.555.565.365 1.059.89.998-.095 1.13 1.252 4.004.813 1.058 1.249 2.809.669 1.076 1.146 2.598-.23 1.195 1.339 2.192.441 1.182.518.642.312 1.549-1.975-2.135.004.589.813 1.67-.676.096-.729-1.832-.069-1.064-1.139-2.698-.231.864-.013 1.973-.266 1.722-.978-1.248-.13.894-.737.756.898 2.145.861-.402.401 2.086.446 1.235.472-.734.758 1.628 1.015.852 1.039 1.412.416 1.08-.136 1.44-.041 3.103.888 1.506.517 2.44.259 4.607.773 5.051.283 3.057.127 3.65.42 1.045-.047 1.65-.207 2.797-.24 1.136.451 2.406 1.163 2.522.643 1.781.374 3.121 1.04 3.908-.326 1.269.092 2.763.385.083-.525 2.687.061 2.308-.19 1.561-1.207-.054-1.121-2.225-.925-1.5-.605-.337-1.119-1.088-1.123-2.392-.638-1.094-1.989-1.29-2.138-3.707-1.542-2.407-1.249-2.878-1.211-1.819-.855 4.382-.896 1.145-2.805-.31.14-1.825-.788-.363-2.367.247-.023-2.917 2.438-4.312-1.297-1.651-1.254-.118-1.136-1.627-1.316.184-.268-4.61 1.285-2.05-.52-4.468-.954-3.553-.724-4.157-1.153-1.597-.259-2.911-1.467.392-1.421-.893-1.794-1.327-.346-1.871 1.605-2.226.539-2.383-.862-3.598 2.772.535 1.37 1.948 1.127.352.848 1.165-.673 1.082 2.016 1.871 1.632-.521 1.899-1.207.373 2.234 1.224 2.819 1.119-1.106 1.221-.834 1.436-1.431.737-2.528.944-.099.384-1.395.66-1.997.159-1.76-.549-1.061-.958-1.045-.63-1.045-.209-1.683 1.192 1.441.301.369.677-1.099-.165-1.623.147-1.612-.027-1.751-.905-1.375-.481.201-.193-1.904-1.179-3.31-1.107-3.571.262-1.233-.795-2.235.873.217.722 1.478Z"/><path d="m371.467 145.322.857 1.536-.17.438.934 1.542-.598-.474-.602-.939-.582-.593-.727-.313-.099 1.892.517.668.651 1.844-.288.486.204.704-.169.372-.164.646-1.039-1.412-1.015-.852-.758-1.628-.472.734-.446-1.235-.401-2.086-.861.402-.898-2.145.737-.756.13-.894.978 1.248.266-1.722.013-1.973.231-.864 1.139 2.698.069 1.064.729 1.832.676-.096-.813-1.67-.004-.589Zm-7.78-9.583.481-.201.905 1.375.027 1.751-.147 1.612.165 1.623-.677 1.099-.301-.369-1.018-2.876-.326-1.618.411-.993.062-1.037Zm-.53 7.132.63 1.045.958 1.045.549 1.061-.159 1.76-.66 1.997-.384 1.395-.944.099-.737 2.528-1.436 1.431-1.221.834-1.119 1.106-1.224-2.819-.373-2.234-.168-1.33.885-.926 1.482-.618.455-.83.878.344.587-1.152.933-.724.663-1.825Zm-17.111 4.023.862 3.598-.539 2.383-1.605 2.226.346 1.871 1.794 1.327 1.421.893 1.467-.392.259 2.911 1.153 1.597.724 4.157.954 3.553.52 4.468-1.285 2.05.268 4.61 1.316-.184 1.136 1.627 1.254.118 1.297 1.651-2.438 4.312.023 2.917-1.186.798-1.234-1.179-1.907-.394-2.172 3.926-2.225 3.05-1.877 2.923-.848-3.625 1.395-3.906-.706-1.003-.877.456-1.192-2.167-1.937.588-1.392-.824-1.428-.477 3.071-1.631 1.157-2.146.97-.749-.043-.904 1.025-1.036 1.019-3.375-1.208-2.145-.193-2.374.861-1.339-.305-.879.645-1.694.547-.451-.025-1.376-1.01-1.33-.532-2.193.228-1.745-1.494-.838.991-1.637-.349-1.328-.698-.813-.259-1.86-.978-.94-.969-.553-.248-2.028.553-2.36.731-2.283.057-1.307.232-1.283 1.408-.292 1.623 1.149Z"/><path d="m332.739 162.516.618-.91 1.18-.774.538-.23.169-1.979.683-.12-.509-1.618.614-.971-.12-.6-.648-1.107-.247-1.525.913-.403.474.88.359-.411 1.461 2.072.953.058-.077-1.09.203-.996-.307-2.094.698-1.044.799-1.807.67.309-.232 1.283-.057 1.307-.731 2.283-.553 2.36.248 2.028.969.553.978.94.259 1.86.698.813.349 1.328-.991 1.637 1.494.838-.228 1.745.532 2.193 1.01 1.33.025 1.376-.547.451-.645 1.694.305.879-.861 1.339.193 2.374 1.208 2.145-1.019 3.375-1.025 1.036.043.904-.97.749-1.157 2.146-3.071 1.631.019-3.864-1.04-1.482-1.308.86-1.039-1.477-1.65-1.481-.227-2.098-.833.347-.743-2.295-1.425-3.806 1.969-.72.755-1.575-.482-1.469.73-1.675.172-1.684-1.134-2.274.642-1.858-.449-1.121 1.002-.139Z"/><path d="m334.537 160.832-1.244-3.323-1.591-1.381-1.194.654-.556-1.459.931-1.257-.584-2.054-.935-1.996.769-2.701.722 1.387.67.39.316-.736.273 1.298-1.325 1.423 1.01 1.473.862-1.977 1.718-1.337 1.269-3.544 1.98 1.601.064-.786.895-.559.716.914 1.19.985-.799 1.807-.698 1.044.307 2.094-.203.996.077 1.09-.953-.058-1.461-2.072-.359.411-.474-.88-.913.403.247 1.525.648 1.107.12.6-.614.971.509 1.618-.683.12-.169 1.979Z"/><path d="m327.781 143.921-.703-1.328.254-1.364 2.006-1.902-1.113-1.517-.019-1.355 1.872-1.429.005-.817 1.084-2.666 1.049-2.241 1.027-.125.62-.74.413.685.307 3.75.618 1.414-.534 2.416 1.057 1.985-.99 1.51-.099 1.589.218 2.645.567.273.228.988-1.269 3.544-1.718 1.337-.862 1.977-1.01-1.473 1.325-1.423-.273-1.298.854-1.047-.369-3.717-2.017.794-.109 1.719-1.398.355-.567-2.801Zm-21.334 28.568.116-1.476 1.334-2.075 1.47-.188 2.362 1.065.65-.847 1.562-1.635-1.107-1.058.55-2.092.065-2.666 2.7-.62 1.594 1.828.858-.056 1.272-1.736.745-.055 2.48 1.777 2.622-.094 1.615.109 2.088-.506 2.252-1.152 1.064 1.504-.393.426-1.002.139.449 1.121-.642 1.858 1.134 2.274-.172 1.684-.73 1.675.482 1.469-.755 1.575-1.969.72-1.491-1.98-1.062 1.1-3.028-.447-1.296.946-2.416.385-1.186.821-.349 1.137-1.052.915-.184 2.546-1.079 1.795-1.388-1.601-1.424-2.978-1.753.199-.702-2.177-1.124.764-1.027-2.542 1.844-.648.779-2.062-2.091-.569-1.397-1.112-.778 1.761 1.062 2.079Z"/><path d="m316.429 210.18-1.68-.646-.652-1.447-.617.458-.554-2.234-1.916-1.376-3.036.158-2.523-1.729-.528-2.495.512-1.627-.902-1.532-1.631.015-2.795-2.53-2.098-1.579-.044-1.118-2.146-2.861.862-1.628.816.868 1.572.672 1.427-.488.614-.54 1.016-3.55.539-.686.946.428.131 1.807 1.847.622.36-.465 1.622 1.599 1.936-.722 1.917.398 2.639-1.547 2.141-2.964-.206-.766 1.079-1.795.184-2.546 1.052-.915.349-1.137 1.186-.821 2.416-.385 1.296-.946 3.028.447 1.062-1.1 1.491 1.98 1.425 3.806.743 2.295.833-.347.227 2.098 1.65 1.481 1.039 1.477 1.308-.86 1.04 1.482-.019 3.864 1.428.477 1.392.824 1.937-.588 1.192 2.167.877-.456.706 1.003-1.395 3.906.848 3.625-3.224 2.603-1.997 1.329-1.985 1.622-2.145-2.463-1.008.345-1.086 1.761-1.177 2.947-2.543 1.122-2.71-.423-2.093.752-2.345-1.522-2.961-2.498-.812 1.242-1.602.034Zm-30.012 8.51-.055.004.16-.595-.434-1.186.002-1.869.817-1.697-.76-.97-1.043.33-.997-2.152.1-1.47.342-.924.342-.934-.494-1.694.91.223 2.002-2.012 1.319-.031 1.698-.936 1.891-2.407 1.095-.576 2.056-1.794-.23 2.398-.793 1.36 1.067 1.982.643 3.928-3.533 5.618-3.215 5.335Z"/><path d="m301.11 188.521-.614.54-1.552-1.109-.211-.435-.796.556-.915-.394-.341.33-1.124-.347-1.713.183-.502-1.495-.803-.799 2.276-2.074.745.491.93.028.004.946 1.442.306-.041 1.24 1.148.232 1.031-.1Zm-86.095-35.536.461-1.884 1.003-2.296-.086-3.697-1.223-1.437-.747-4.056.433-2.974 1.382-.142.245-1.269-.696-.957 1.148-4.532.466-3.497.253-2.235 1.123-.21-.15-1.68 2.273-.003-.446-1.929.639-.278 1.955 1.026 2.465 1.462 1.717 4.398.831 1.004-1.821 1.405-.535 2.359.791 1.746-1.386 2.895-1.978 3.167.011 4.477 1.607 1.93 1.899 1.383-.561 3.752-1.505 1.05.526 5.317-.356 3.097-2.183.059-.555 2.644-2.052.449-1.043-2.895-1.995-3.378Zm30.419 1.752 2.003.135.529.649.7-.67 1.871.095.759 1.32-.008.934 1.864 1.525.906.266.139.574 1.343.055.827.579-.36.918-1.398.46-.21.409.823.82 1.231 1.732-1.414.779-.267.862.496 1.554-.824-.014-1.55.749-.739-.531-.473.771-.844-.197-1.44.432-2.28-.05-1.926.343-1.397.505-.751 1.132-.856.376-.454-1.362-.995-1.272.899-.939-.368-1.227-.861-1.027-.498-1.334 1.708-.473 1.51-1.729-.2-1.834 1.038-1.42-.649-1.295.815-.843Z"/><path d="m256.453 164.538.693-.151.139-.853.581-.068 1.623-1.048 1.843 1.171-.153.789.558.846 1.427-.483 1.202.981.233.591 2.652-.023 1.068-1.114 1.719.815.962-.545 2.933-.414.461.823.106 1.878 1.195 1.369.221 1.105-1.564 1.123-.503 1.286.566 1.315-1.313.977-.766 1.552-1.644.994-1.118 1.857.774 1.543-.325.043-.493-.473-.655.163-1.617-.03-.201.958-.393-.208-3.292.513-.566-1.07-1.649 1.092-.112 1.948-.74 2.834-1.095-.18-.786.839-1.095-.239.4-.513v-1.177l.213-1.169-.333-.495.329-.393.339.346 1.2-.344.443-.425-.479-.168-.03-.503-.961-.512-.737-1.164-.885-.237-.228-1.08-1.16-.502-.838.172-1.747-.455-1.191.738-.315.605-.832.272-.258.881-1.372.751-.539.685-1.153-.476-1.288.359-1.34.01-.688.909-.366-.801-1.353-.55.06-1.361.329-.959.479.068-.893-1.264 1.028-3.065.843-.633-.063-.925-1.755-2.42.856-.376.751-1.132 1.397-.505 1.926-.343 2.28.05 1.44-.432.844.197.473-.771.739.531 1.55-.749.824.014-.496-1.554.267-.862Z"/><path d="m239.911 164.088.498 1.334.861 1.027.368 1.227-.899.939.995 1.272.454 1.362 1.755 2.42.063.925-.843.633-1.028 3.065.893 1.264-.479-.068-2.203-.703-1.313.803-1.02-.095-1.025.954-1.273-.887-.723.614-.159-.167-1.261-1.354-1.528.115-.395-.95-1.438-.086-.13.874-1.213-.452-.047-.895-1.53-.011-1.127-.864-1.163-1.891-.038-1.118-.776-1.616-.887-1.017.378-.927-.711-1.536 1.098-1.13 2.578-1.95 2.041-1.496 1.909.156.319.73 1.74-.348 2.293-.171 3.245-.892 1.002.085Zm-7.991 21.039.094 1.323-1.179.232.531.613-.326 2.172-.312.611-1.871.403-.973.902-1.829.036-3.234-.388-.63-1.048-2.072.816-.18.642-1.379-.309-1.126.028-1.039-.492.252-.819-.134-.559.628-.242 1.191.778.21-.88 1.915-.08 1.464-.765 1.037-.038.761.563.124-.568-.603-2.04.699-.512.517-1.576 1.707.789.957-1.493.687-.358 1.772.688.942-.339 1.066.416-.092.435Z"/><path d="m242.16 181.808 1.353.55.366.801-1.071.982-.423 2.374-.738 2.446-1.559 1.002-1.358.17-1.461 1.193-.707.649-1.905-.241-1.878-1.041-.755-.263-.616-.997-.368.034.326-2.172-.531-.613 1.179-.232-.094-1.323 1.219.602.845.191 1.663-.757.026-.665.803-.277.886-.715.268.151.864-.617.304-.853.615-.352 2.404.408Zm9.189-2.04.315-.605 1.191-.738 1.747.455.838-.172 1.16.502.228 1.08.885.237.737 1.164.961.512.03.503.479.168-.443.425-1.2.344-.339-.346-.329.393.333.495-.213 1.169v1.177l-.4.513-.83-1.27-.22-1.38-.518-1.317-1.753-1.425-1.061-1.076-.907-.703Z"/><path d="m257.329 187.044 1.095.239.786-.839 1.095.18.316.766-.759 1.027-.715-.063.644 3.896-1.331.114-1.876-.591-2.264 1.539-.83 1.121-3.204.794-1.789-.009-.785.461-.953-1.113-.535-.437.371-.66-.634-.247-.499.884-1.484-.584-.486-1.251-1.482-.412-.476-.94-1.446-.956 1.559-1.002.738-2.446.423-2.374 1.071-.982.688-.909 1.34-.01 1.288-.359 1.153.476.539-.685 1.372-.751.258-.881.832-.272.691.105.907.703 1.061 1.076 1.753 1.425.518 1.317.22 1.38Zm-14.011-29.707.649 1.295-1.038 1.42.2 1.834-1.51 1.729-1.708.473-.719-.825-1.002-.085-.381-.74-.067-.893-.917-.281-1.977-.065-1.101-2.497 1.661-1.436 2.867-.58 1.525-.784.45.559.949-.078Z"/><path d="m242.488 151.341 1.027.424.71 1.398 1.209 1.574-1.301 1.757-.815.843-2.119-.954-.949.078-.45-.559-1.525.784-2.867.58-1.661 1.436-.602-2.327.247-2.125 1.214-1.443 2.02 1.915 1.291-.437-.482-2.405 1.163-.942.82.157 1.769.674Z"/><path d="m241.163 145.059.436.434-.372 2.072 1.563 2.604-.302 1.172-1.301.428-1.769-.674-.82-.157-1.163.942-.434-1.832-.444.552-1.357-.786-.715-1.694 1.642-1.392 1.736-1.019 1.804-.041Zm-18.196 23.22.711 1.536-.378.927.887 1.017.776 1.616.038 1.118 1.163 1.891-.825.477-.583-.283-.399.685-1.34.828-.626.898-1.372.894.492.904.41 1.316 1.157.624 1.378 1.203-.517 1.576-.699.512.603 2.04-.124.568-.761-.563-1.037.038-1.464.765-1.915.08-.21.88-1.191-.778-.628.242-2.404-.778-.385.733-1.841.114.106-2.312.9-2.278-3.072-.388-1.039-.789.041-1.417-.458-.703.116-2.188-.528-3.346 1.195-.064.421-1.234.28-2.961-.429-1.059.323-.699 1.575-.283.417.674 1.139-1.674-.54-1.16-.258-1.796 1.436.298 1.126-.596.167 1.221 1.967.541.124 1.13 1.822-.823.913-1.003 2.283.952Zm23.792 26.287.953 1.113.785-.461 1.789.009 3.204-.794.83-1.121 2.264-1.539 1.876.591 1.331-.114-.681 1.656-.088 2.459 1.229 1.509-1.985.23-1.94 1.702.412 1.543-1.935.928-1.864-.603-1.572 1.375-1.697.381-.67-2.019-1.365-.695.262-.543-.331-.306.131-1.095.589-1.205-1.405-1.057-.474-1.092Z"/><path d="m262.106 219.732-.077 1.003-3.434 1.349-.092-.516-3.12.274.165-1.439 1.569.65 1.848-.743 1.853-.343.07.552ZM249.67 203.43l1.697-.381 1.572-1.375 1.864.603 1.935-.928-.412-1.543 1.303.472-.134 2.147-.431.521-1.385.342-1.249.067-2.526 1.616 2.017 1.285-1.035.844-1.274.369-1.605-1.269-.268.803.956 1.72 1.51 1.134-.723.925 1.648 1.067 1.375.564.455 1.738-2.389-.198 1.069 1.387-1.443.746 1.523 2.478-1.6.482-2.285-.824-1.429-2.259-.859-1.968-1.229-1.208-1.592-1.491-.336-.855.775-1.784-.082-1.051.664-.638-.139-.832 1.447-.662.716-.909 1.247-.265.245-.646Z"/><path d="m300.107 195.195-.686 1.077-.999-.284-2.417 1.053-.637.959-2.056 1.794-1.095.576-1.891 2.407-1.698.936-1.319.031-2.002 2.012-.91-.223.494 1.694-.342.934-.342.924-1.277-.951.411-1.503-1.217.887-2.061.173-.916 2.396-3.266 1.808-2.337-.848-2.475.878-.146 1.457-1.483.966-2.695-.786-2.519.954-2.212-2.57-2.152-1.143.465-2.753-1.847-1 1.664-3.765 3.366-1.316.187-2.654 4.213-1.172 1.841-2.995 2.092-1.884 3.323-1.591 4.337.39 3.316-.332 2.068-1.673 1.769-.667 1.528-2.8 1.904-1.328 2.451.288.803.799.502 1.495 1.713-.183 1.124.347-.862 1.628 2.146 2.861.044 1.118Zm-43.781 4.611 1.94-1.702 1.985-.23.622 1.092 2.201.302-.162.894-2.544 1.091-.658 1.265-1.391 2.279-1.103-1.212-.152-.639.431-.521.134-2.147Zm-10.718 6.33.139.832-.664.638.082 1.051-.775 1.784-.452-.122-.183-.681-1.518-.758-.5-1.451-.239-2.19.115-1.052-.49-.407-.354-.969.659-1.775.272.558.552-.419.663.732.609.19.404 1.1-.056 1.138.615 1.271Zm-13.584-15.706.755.263 1.878 1.041 1.905.241.707-.649.782 1.11.888.747-.585 1.372-1.138-.485-1.505.359-1.99-.15-1.016.265-.358.749-.916-.589-.244 1.403 1.349 1.295.666.893 1.242.993.989.53 1.104 1.154 2.245.78-.149.589-2.367-.726-1.529-.884-2.243-.56-2.284-2.006.414-.32-1.241-1.165-.213-1.072-1.51-.272-.476 1.483-.817-.971-.113-1.116.073-.06 1.562-.13.321-.604.83.401.875-.085-.156-.888.709-.456-.011-1.324Zm-15.511-1.14.134.559-.252.819 1.039.492 1.126-.028-.033 1.333-.912.643-1.677-.251-.363 1.343-1.049.194-.426-.481-1.17 1.185-1.07.227-1.011-.625-.845-1.368-1.037.559-.034-1.46 1.502-1.9-.121-.814 1.005.233.564-.591 1.841-.114.385-.733Zm-8.152-7.818.458.703-.041 1.417-.599.101-.482-.261.135-1.813Z"/><path d="m208.477 179.284-.116 2.188-.529.147-.135 1.813-1.885-1.392-1.06.285-1.484-1.485-.975-1.275-.949-.043-.302-1.125 1.608-.655 1.487.224 1.84-.728 1.342 1.35Z"/><path d="m209.416 170.62.429 1.059-.28 2.961-.421 1.234-1.195.064.528 3.346-1.158-.696-1.342-1.35-1.84.728-1.487-.224 1.015-.902 1.582-4.767 2.571-1.455Zm-35.779 35.836.96-.693 1.015-.338.408 1.64 1.401.173.446-.359 1.373.271.51 1.677-1.201.745-.279 2.492-.441.42-.252 1.502-1.086.134.786 2.032-.902 2.01.77 1.043-.429.826-1.056 1.083.103 1.072-1.109.695-1.288-.616-1.346.171.669-2.423-.006-1.981-1.074-.451-.446-1.29.459-2.047 1.122-1.017.335-1.264.741-1.845.116-1.356-.335-1.212Z"/><path d="m175.763 222.186-.103-1.072 1.056-1.083.429-.826-.77-1.043.902-2.01-.786-2.032 1.086-.134.252-1.502.441-.42.279-2.492 1.201-.745-.51-1.677-1.373-.271-.446.359-1.401-.173-.408-1.64-1.015.338-.96.693.413-2.254-.768-1.525 3.559-1.862 2.756.909 3.111.302 2.433.764 1.943-.024 3.771.327.883 1.298 4.308 1.603.875-.677 2.666 1.481 2.762-.434.151 1.874-2.273 2.158-3.122.659-.235 1.08-1.545 1.748-1.017 2.587.932 1.858-1.488 1.385-.607 2.059-1.954.563-1.922 2.362-3.273-.148-2.454-.242-1.694.987-1.077 1.107-1.247-.384-.867-1.165-.567-1.902Zm8.683-53.312.053 2.305-1.799 2.692-3.733 1.455-2.699-.876 2.101-3.082-.463-3.363 2.91-2.124 1.596-1.303.143 1.743-.613 1.655 1.165.088Zm196.056 32.694.317 2.713-.147 1.595-.467 2.494-.593-.742-.71-2.891-.5-4.736.73-.281.627.562Zm-12.866-84.665.437 1.137-.839-1.581-.904-1.886-1.303-2.801-.526-1.14.178.248.879 1.731.797 1.566Zm-33.773 11.534-1.259-.992-.242-1.647-4.238-1.891-.033-3.943-.304-1.239-3.88-4.386 1.363-2.526-.924-1.651-2.378-1.766-.048-1.425-1.47-2.244-.138-.726 1.737.718 1.388-.446 1.03-1.626 1.947.17 2.707 2.47 1.016.11.413-1.671.278-1.99 1.311-1.041.177-.852 1.988.635 1.207-.086-.275-1.909-.065-3.176-.749-2.447-.06-1.456.647-1.667-.604-2.048.418-.333-1.785-2.665-1.721-3.112-1.093-2.51-1.581-2.306-1.664-1.758-1.251-1.475-.568-.099-.569.094-1.786-1.489-.249-.774-.409-1.378-1.974-2.03-2.179-2.633-2.08-1.652-1.264-1.252-1.697-2.182-.566-1.03-.852-.417-.57.749.089.884 1.523 1.362.56 1.276.772.906-.671.038-2.825-1.772-2.109-1.215-.229-1.366-2.708-2.303-.962-.255-3.213-1.768-1.245-.87-1.221-.252-.028.563-1.893-1.242-1.587-1.572-1.373-1.587-.889-1.649-.153-.905 1.441-.386.465-.291.854-.189 1.537-.058-1.534-1.975-.174-1.144 1.221-.103-2.109-1.826-1.938-1.161-2.912-1.987 2.358.895 1.209.582 2.425.859 2.684 1.272 1.49 1.424 1.862 1.273 1.122.15 2.248.915.806.694.857.33-.064.467 1.551.921 2.96 2.439.691.181 1.163 1.196.104.423 2.192 1.559 2.437 2.073 2.213 1.798 2.324 2.398 1.758 1.597 1.82 1.972-1.478-1.311-.441-.064-2.184-1.876-.311.312 1.69 1.677 2.596 2.463 1.881 1.656 1.184 1.629 1.409 1.347.64-.102-.635-1.153.752.455-.424-.967-2.595-2.609-.441-1.005-.783-1.002.672.306 2.287 2.592 1.493 1.382 2.036 2.203 1.779 1.711-.435-1.144 1.056.56.609.127.227-.172 1.106 1.008 1.249 1.451.435.31-.385-.606 1.336 1.397 1.424 1.574.898 1.124 2.427 2.911 2.762 3.488 2.694 3.624 2.868 4.127 2.691 4.115 1.46 2.413 1.203 1.984.016.121 1.186 2.002 2.032 3.712 1.222 2.434 1.481 2.638.586 1.257-.545-.798-.647-1.198.829 2.184.583 1.277.511 1.613-.112.235-.807-1.392.447 1.559-.128.307 1.222 2.761.744 2.261.45 1.663.589 1.6.443 1.376 1.273 1.896.234 1.085-.229-.268-.47-.735.678 2.127-.031.568-.155.846-1.129-2.244-.008.964-1.099-1.289.549 2.549-1.615-2.559-1.451-3.573-1.186-1.639-1.109-1.374-.214.445-.788-.415.275 1.326.027 1.916-.722-1.478-.873-.217.795 2.235-.262 1.233 1.107 3.571 1.179 3.31.193 1.904-.418.366-.062 1.037-.411.993.326 1.618 1.018 2.876-1.192-1.441.209 1.683-.405 2.187-.663 1.825-.933.724-.587 1.152-.878-.344-.455.83-1.482.618-.885.926.168 1.33-1.899 1.207-1.632.521-2.016-1.871.673-1.082-.848-1.165-1.127-.352-1.37-1.948-2.772-.535-1.852 2.119-1.623-1.149-1.408.292-.67-.309-1.19-.985-.716-.914-.895.559-.064.786-1.98-1.601-.228-.988-.567-.273-.218-2.645.099-1.589.99-1.51-1.057-1.985.534-2.416-.618-1.414-.307-3.75ZM218.56 191.132l1.379.309.18-.642 2.072-.816.63 1.048 3.234.388-.01 1.61.733 1.277-1.827-.207-1.654 1.384.325 1.571-.16.947.952 1.532 2.363 1.311 1.535 2.461 2.972 2.15 1.821-.332.686.596-.553.752 2.296.761 1.893.617 2.321 1.23.357.54-.235 1.219-1.585-1.201-2.158-.112-.657 2.233 1.927.842-.01 1.706-.984.38-.879 2.943-.995.429-.135-.968.246-1.784.423-.769-1.228-1.663-.983-1.47-1.055-.229-.908-1.255-1.623-.332-1.205-1.127-1.794.047-2.034-1.195-2.397-1.815-1.791-1.665-1.037-3.101-1.179-.255-1.963-.889-1.022.525-1.227 1.596-.945.302.173-1.413-1.279-.326-.743-2.456.732-1.03-.74-1.17.034-.916 1.011.625 1.07-.227 1.17-1.185.426.481 1.049-.194.363-1.343 1.677.251.912-.643Zm13.58 26.569 1.838-.588-.533 2.637.507.915-.298 1.704-2.093-.871-1.324-.145-3.7-1.111.157-1.678 2.953-.124Zm-15.801-6.943 1.13-1.099 1.643 2.134.024 4.264-1.143-.099-.929 1.154-1.003-.765-.376-3.854-.693-1.79Zm-1.705-45.374-1.126.596-1.436-.298-.906-1.703-.343-3.235.214-.874.414-.987 1.506-.332.511-.927 1.266-1.031.153 1.623-.385 1.078.318.864 1.018.37-.279 1.239-.575-.285-1.025 2.406Zm3.937-4.073.809 1.502-.696 2.696-2.157-1.55-.426-1.287Z"/><path d="m184.446 168.874-1.339-.81-1.165-.088.613-1.655-.143-1.743 1.545.049 1.741 2.163Zm5.761 1.972h.007l.406-1.836-1.108-2.047-.023-.045-2.2-.736-.351-.899.807-1.36-.511-.926-1.132 1.406.231-3.058-.701-1.697 1.018-3.191 1.598-2.428 1.311.361 2.041-.118-2.102 3.278 1.79-.31 1.882.123-.609 2.551-1.798 2.748 1.848.312.123.341 1.447 3.829 1.26.558 1.06 3.672.521 1.275 2.358.641-.251 2.051-1.027.932.785 1.666-1.85 1.665-2.724-.106-3.524.728-.916-.687-1.455 1.41-1.868-.509-1.556 1.101-1.03-.744 3.296-3.103 1.855-.557-.014-.006-3.076-.775-.438-1.323 2.154-.815-.911-1.813.557-2.06Zm-11.208-42.692-.835 1.841.898 2.323-2.343 1.909-4.497 1.108-1.346.226-1.604-.926-3.287-2.053 1.788-.865-2.132-2.312 2.429.186.301-.86-2.251-1.523 1.643-1.557 1.965.178 1.082 2.518 2.447-1.033 1.247 1.231 2.517-1.057Zm117.413 51.892.532-.247 2.095.836.85-.362-.097-.915.373-1.855 1.691.771 1.942 1.278.845-.484.921.326-1.232 1.298.888 2.351.232 1.186-.275 1.121.772 1.327-.36.465-1.847-.622-.131-1.807-.946-.428-.539.686-1.016 3.55-1.036-1.901-1.031.1-1.148-.232.041-1.24-1.442-.306-.004-.946-.93-.028-.745-.491.197-.747 1.729-.098 1.026-.485.06-.497-1.654-.905Zm4.084 9.015-1.427.488-1.572-.672-.816-.868.341-.33.915.394.796-.556.211.435Z"/><path d="m282.624 182.84.064-.469 1.788-.395 2.893-1.124 3.116-.162.577.329.839-1.142 1.933-.5 1.143.781 1.435-.112-.239.699 1.654.905-.06.497-1.026.485-1.729.098-.197.747-2.276 2.074-2.451-.288-1.904 1.328-.305-1.389-1.408-1.678-1.569-.439-1.18.256Zm-56.569 8.579 1.829-.036.973-.902 1.871-.403.312-.611.368-.034.616.997-1.567 1.156.011 1.324-.709.456.156.888-.875.085-.83-.401-.321.604-1.562.13.451-.366-.733-1.277Zm3.535-73.929.787 1.983 2.556 1.229.019 2.464 2.896 2.669.375 2.704 2.121 1.675.385 2.037 2.838 1.193.226 1.64-.443 2.13-1.317 4.79-2.519 1.117-2.183 1.888-2.226 1.332-1.411-1.405-1.757-.608-.6-3.038-1.543-2.519.11-1.904.607-2.176 1.81-4.005.596-.862-.617-1.177-2.239-.848-.831-1.004-1.717-4.398-2.465-1.462-1.955-1.026.392-.913 1.745 1.188 1.363-.53 1.437.341.494-1.556-.389-2.197 1.121-1.45 1.806.63Zm12.959 61.998-.329.959-.06 1.361-.343.435-2.404-.408-.615.352-.304.853-.864.617-.268-.151-.886.715-.803.277-.026.665-1.663.757-.845-.191-1.219-.602-.425-1.059.092-.435.151-.752.918-.126.632-.468-.011-.304.364-.231-.022-.743.435-.237.187-.632.592-.133.159.167.723-.614 1.273.887 1.025-.954 1.02.095 1.313-.803Z"/><path d="m226.164 176.384 1.127.864 1.53.011.047.895 1.213.452.13-.874 1.438.086.395.95 1.528-.115 1.261 1.354-.592.133-.187.632-.435.237.022.743-.364.231.011.304-.632.468-.918.126-.151.752-1.066-.416-.942.339-1.772-.688-.687.358-.957 1.493-1.707-.789-1.378-1.203-1.157-.624-.41-1.316-.492-.904 1.372-.894.626-.898 1.34-.828.399-.685.583.283Zm75.14 92.912-.463-.924.386-4.476-.104-1.916.634-1.231 1.75-1.391.93-2.207 2.1 2.356 1.189 2.08 1.608.55 3.821.584 1.626.693 1.589.712.914.429 1.307.052-.599 1.07-1.065.41-.971-.334-1.267-.922-1.238-.198-.791-.539-2.334.167-1.706.914-.704-.225-1.353 1.411-1.744-.398-.44 2.386Zm5.129-225.614.828.587 1.598 1.149v.001l2.853 2.117.434.335-.913-.659 3.406 2.678 2.715 2.2 2.023 1.758-.725-.741 3.376 2.846 1.756 1.561.283.264-1.628-1.417.668.65-.281-.133-1.999-1.783-1.756-1.447-2.434-2.017-2.214-1.723-3.892-3.089-1.638-1.289-4.34-2.903-.558-.491-4.076-2.648-1.584-.987-2.832-1.581-1.251-.483-1.659-.852-2.196-1.317.868.134 1.137.521 3.086 1.74 1.309.711 1.745 1.06.216.131 5.4 3.542Zm-25.574-14.001-1.884-.845 1.077.143 3.15 1.622 2.985 1.356 1.938 1.408 2.537 1.14 2.028 1.285-1.192-.345-2.005-.923-1.965-1.208-2.531-.844-1.67-.567-.557-.895-.916-.681Zm36.721 22.545-1.781-1.422-.846-.709-1.298-1.004-1.029-.833.227.158 1.815 1.409.319.266 1.228.984 1.244 1 .775.662ZM56.133 311.307l-.08-.104-.74-.934-1.956-2.488-2.583-3.438-1.004-1.381-1.786-2.529-2.767-4.107-.777-1.285-.522-.887-.241-.607 2.135 2.883 1.361 1.817 1.873 2.663.318.554.99 1.501 1.287 2.136 1.805 2.265.434.436 1.343 1.666.611.818 1.129 1.61.612.81.641.73.426.416.785.914.608.833.447.645.356.511.792.996-.437-.45-4.184-4.919Zm277.866-77.266 2.808 2.951 1.15 1.233-1.227 1.935-.078 1.476.186.909-1.733 2.782-3.022 3.879-1.494 3.289-.916.86-.683.334-1.058 2.01-1.311 1.513-1.859 1.454-.542.542-.367 1.019-.566.595-.232.89-1.152.702-.681.836-1.647.915-.891-1.117-.204-1.458-.541-.519-.849-1.643-.905-.657.449-.423-.503-1.05.177-.688-.357-1.086.826-1.484-.495-.971.306-1.696 1.112.086.561-.639 2.604-1.797.469-.01 2.22-1.221.804-.727.775.481.905-1.177.799-3.895 1.628-2.679Z"/><path d="m287.712 229.325 2.76-.786.73-1.385.221-1.316 1.618-1.285.061-1.157.584-.882-3.213-1.744 3.945-3.775.26-.661 2.893-.677 3.92.142 8.07 1.923 3.878-2.38 1.888-1.016 1.022.951 1.359-1.111 1.722 1.772 1.212-.121.71.694 1.779.09.552 1.021.165 1.05.597.71.848.3.595.671.536.424.784.048.459-.634.752.714.307.548 1.727 2.071 6.064-3.714.15-.897 1.512 1.051.658 6.342-4.838 7.735-5.534 5.754-1.628 2.679-.799 3.895-.905 1.177-.775-.481-.804.727-2.22 1.221-.469.01-2.604 1.797-.561.639-1.112-.086-.306 1.696.495.971-.826 1.484-.568-.938-.886-.37-.434-.952-1.439-.228-1.8-1.508-1.216-1.816-2.11-.931-1.179.149-2.252-1.747-.775-1.776-.334-1.701-2.203-2.365-1.416-.511-1.451.087-1.239-1.218-.047-.704-1.074-1.137-.875-.288-1.529-1.67-2.12-1.608-1.779-1.41-1.194.572-.076-1.771-.191-1.061Zm-10.399-14.752.15-.082.094-.862 1.633-.668 1.73-1.8-1.081 1.944.354.481-.277.003-.355.418-.36.09-.077.161-.138-.279-.223-.115-.448.161-.528.522Z"/><path d="m277.313 214.573.474-.026.528-.522.448-.161.223.115.138.279.077-.161.36-.09.355-.418.277-.003.144.212-1.929 2.23-1.241.09-.901-.976Zm-88.307 14.904.907 2.08.091 1.927.813 3.367.692.693-.538 1.201-3.582.348-1.293 1.083-1.599.163-.241 2.302-3.291.976-1.166 1.453-2.325.612-2.803.171-4.687 1.707-.315 3.624-.425-.058-.079 1.641-1.755-.149-.98.553-1.278-.195-.972-.549-2.398-.069-1.184 2.188-.897.068-1.763 3.529-4.323 2.425-1.428 3.861-1.331 1.058-.465.974-6.464-1.258-.051-.017.313-1.31 1.188-.527 1.13-1.296-.05-1.034 1.255-1.841 1.822-1.517 1.004-.266.977-1.565.273-1.575 1.252-1.632 1.995-.714 2.166-2.728.055-.031 1.529-.901 2.616.133 2.41-1.717 1.481-.594 2.571-2.212-.273-3.944 1.321-2.515.536-1.592 1.941-1.869 2.797-1.09 2.081-1.066 2.043-3.072.977-1.854 1.916.194 1.472 1.481 2.502-.028 2.685.878Zm109.05 18.619-9.972 4.637-10.154 4.042-10.907 3.661-1.877-10.732-2.069-10.582-1.272-2.189.265-2.063-.671-1.174.609-1.732 3.331-1.113 2.597-.012 2.676.027 1.265.051 1.651-1.654.776-1.234 2.066-1.081 1.816-.315 1.059 1.202.287-1.199 2.103-.109 1.894-.646.933-1.261 2.595 3.669.453.648-.32 1.481.114 2.432-.226 1.809-.428.761-1.07-.578-1.447-.817-2.88-3.462-.179.371 1.85 2.673 2.292 2.283 3.048 3.683 1.311 1.152 1.217 1.252 3.015 2.112-.361.727.541 1.8 3.494 1.124Z"/><path d="m267.023 260.436.903 5.712-3.23.969.141 1.201-12.077-2.543-12.091-3.267-2.752 2.11-1.963 1.425-1.777-1.369-4.708-.647-1.417-1.704-2.389-1.126-1.323.699-1.142-1.568-.196-1.276-1.837-2.04 1.058-1.375-.369-1.885.259-1.703-.306-1.378.325-2.553-.25-1.414-1.088-2.644 1.3-.851.14-1.337-.392-1.254 1.778-1.398.755-1.091 1.231-1.05-.066-2.421 3.236.68 1.094-.425 2.279.192 3.69.824 1.602 2.542 2.487.158 3.943.551 3.073.911 1.176-1.083 1.032-1.701-1.01-2.202.559-1.688 1.602-1.889 1.694-.86 3.564-.284 1.148 1.124.954-.258.914.289 2.593-.387.838.812-.609 1.732.671 1.174-.265 2.063 1.272 2.189 2.069 10.582ZM331.312 269l-5.711 11.81-3.091 2.135-2.033 3.033-1.567 1.007-.629 1.152-1.699 1.008-1.059-.213-2.252 2.302-.7 1.403-1.719.747-.59.039-.602.387-.815.406-3.435-.31-1.843.912-.96-.343-.089-1.351-1.427.263-1.791-1.908-1.284-.004-.553-.773-1.489-.593-1.699.559.802-1.833 1.435-.696.332-.952-.283-2.254.48-3.03 1.18-1.304.131-1.176.863-2.509 1.401-2.051.647-3.091.041-2.476 3.075-.947.44-2.386 1.744.398 1.353-1.411.704.225 1.706-.914 2.334-.167.791.539 1.238.198 1.267.922.971.334-.654 1.652-.622 1.694.306.589.158.755 1.36-.775.554-.537.608.123-.389 1.223 1.099.834 1.055.657 1.034.308 7.993-2.22Z"/><path d="m316.927 266.087 1.065-.41.599-1.07.707.441.109 1.11-1.251 1.462 1.139.057-.658 1.911-.608-.123-.554.537-1.36.775-.158-.755-.306-.589.622-1.694Zm15.587-7.459-.009.051.182 1.041.432 2.516.208 1.292-.754 2.267-1.261 3.205-1.883 1.39-7.993 2.22-1.034-.308-1.055-.657-1.099-.834.389-1.223.658-1.911.857-.024.631.758 1.23.369 1.167-.756 2.083-2.114 2.427-2.025 1.838-2.207 1.068-.977.698-1.046Zm-34.757 51.464-5.648 2.597-3.08 1.218-1.003.657-1.712 1.331-.686.038.04-1.675.673-1.101.15-1.868.595-1.285 1.066-1.614 1.079-1.04.884-1.183-1.136.134.07-2.805 1.139-1.111 1.799-.196 2.219-1.495 1.938-.835 1.633-1.843 1.376 1.062.363 1.035 1.288 2.111-.952 2.132-1.327 2.118-.785 1.266Z"/><path d="m288.026 314.564 1.1.795-.194 1.343-.824.59-1.501.442-.912 1.552-1.737.481.305-1.273.397-.313.132-1.329.836-.919.686-.038Zm-49.244-112.812-2.245-.78-1.104-1.154-.989-.53-1.242-.993-.666-.893-1.349-1.295.244-1.403.916.589.358-.749 1.016-.265 1.99.15 1.505-.359 1.138.485.785-.185-.249 1.509 1.323.973-.011 1.557-.493.262-.36.375-.579.897Zm8.853-1.036 1.365.695.67 2.019-.407.224-.245.646-1.247.265-.716.909-1.447.662-1.121-.53-.615-1.271.056-1.138.293-.043-.035-.669 1.227-.815.475-.25.726-.384Z"/><path d="m237.269 191.326 1.461-1.193 1.358-.17 1.446.956.476.94 1.482.412.486 1.251 1.484.584.499-.884.634.247-.371.66.535.437-.352.852.474 1.092 1.405 1.057-.589 1.205-.131 1.095.331.306-.262.543-1.021.32-.726.384-.127-.214.179-.445.071-.827-.309.102-.571-.473-.404-.055-.404-.427-.462-.087-.422-.368-.361.274-.073 1.116-.484.356.119-.313-.999-.453-.807-.167-.415-.363-.71-.405.493-.262.011-1.557-1.323-.973.249-1.509-.785.185.585-1.372-.888-.747Z"/><path d="m242.252 201.175-.552.419-.272-.558-.659 1.775.354.969-.529-.139-.849-.883-1.112-.417.149-.589-.012-1.809.579-.897.36-.375.71.405.415.363.807.167.999.453-.119.313Z"/><path d="m243.928 203.197-.404-1.1-.609-.19-.663-.732.269-.803.484-.356.073-1.116.361-.274.422.368.462.087.404.427.404.055.571.473.309-.102-.071.827-.179.445.127.214-.475.25-1.227.815.035.669ZM37.093 228.972l.888.862.282.51-.447 1.705-1.246-1.444-.207-.584.551-.061Zm251.956 74.524-2.558-.612-.725-.764-1.57 1.103-1.33.325-.759.681-1.302.169-1.862-1.382-.501-.612-2.237-.241-.824-1.238-1.29-.677-2.062-.683-.076-.808-1.684-.531-2.081-.395.885-.543.974-.777.581-2.519.699-1.441 2.067-1.009.567.554 1.625 1.014.822-.043 1.001-.786 2.077-.622.44.391 2.843-1.019.042-.561 1.41-1.025.219-.857 1.007-.934 2.502.584 1.414-.841 1.17-2.41 1.334-2.041-.419-1.463-.757-.488 1.621-.823.108-.663 1.281-.361-.079 2.064.564 1.718 1.515.399.424.735.095 1.288.385-.119.239 1.954-.332.952-1.435.696-.802 1.833 1.699-.559 1.489.593.553.773 1.284.004 1.791 1.908-1.721 2.442-1.593 2.187-1.633 1.843-1.938.835-2.219 1.495-1.799.196Z"/></g><g transform="translate(200.743 173.768)"><circle cy="12" r="8" fill="#38bdf8" opacity=".15"/><circle cy="12" r="4" fill="#38bdf8" opacity=".25"/><path fill="#38bdf8" d="M0-10c-6 0-10 4-10 10 0 7 10 16 10 16S10 7 10 0c0-6-4-10-10-10"/><circle cy="-1" r="3.5" fill="#162d4a"/><text x="14" y="2" fill="#38bdf8" font-family="'Inter', Arial, sans-serif" font-size="11" font-weight="600" opacity=".8">FR</text></g><circle cx="256.935" cy="181.971" r="2.5" fill="#2dd4bf" opacity=".6"/><circle cx="256.935" cy="181.971" r="5" stroke="#2dd4bf" stroke-width=".8" opacity=".3"/><ellipse cx="150" cy="135" fill="#fff" opacity=".02" rx="90" ry="60" transform="rotate(-20 150 135)"/><ellipse cx="200" cy="195" stroke="#38bdf8" stroke-width=".6" opacity=".12" rx="193" ry="45" transform="rotate(-20 200 195)"/><defs><linearGradient id="grad-mg" x1="0%" y1="0%" x2="100%" y2="0%"><stop offset="0%" style="stop-color:#2dd4bf"/><stop offset="100%" style="stop-color:#38bdf8"/></linearGradient></defs><text x="195" y="445" fill="url(#grad-mg)" font-family="'Space Grotesk', 'Arial Black', Arial, sans-serif" font-size="72" font-weight="800" letter-spacing="-2" text-anchor="end">M</text><text x="205" y="445" fill="url(#grad-mg)" font-family="'Space Grotesk', 'Arial Black', Arial, sans-serif" font-size="72" font-weight="800" letter-spacing="-2">G</text></svg>